<svg xmlns="http://www.w3.org/2000/svg" width="512" height="512" viewBox="0 0 512 512" version="1.1">
	<path d="M 138.500 6.866 C 127.326 11.955, 121.004 27.051, 117.493 57.027 C 115.799 71.492, 115.941 73.522, 119.640 87.869 C 121.767 96.119, 126.548 106.786, 127.632 105.701 C 127.846 105.487, 127.302 103.329, 126.424 100.906 C 124.118 94.547, 125.734 78.563, 130.612 59.500 C 134.286 45.140, 141.587 40.860, 150.759 47.689 C 153.583 49.792, 154.100 49.902, 154.633 48.514 C 154.971 47.633, 154.997 45.245, 154.690 43.206 L 154.133 39.500 155.816 41.972 C 156.742 43.332, 160.550 47.832, 164.279 51.972 C 168.626 56.800, 172.686 62.728, 175.598 68.500 C 178.843 74.933, 179.956 76.502, 179.498 74 C 177.831 64.883, 175.665 58.113, 172.485 52.082 L 169.015 45.500 172.498 49.500 C 179.297 57.308, 183.461 64.597, 186.769 74.485 C 190.247 84.877, 191.809 94.542, 190.519 97.683 C 189.918 99.146, 189.523 98.721, 188.491 95.500 L 187.210 91.500 187.035 98.500 C 186.938 102.350, 186.516 106.379, 186.095 107.453 C 185.447 109.112, 185.206 108.885, 184.501 105.953 L 183.670 102.500 183.274 105.500 C 182.568 110.858, 180.946 116, 179.961 116 C 179.433 116, 179 115.298, 179 114.441 C 179 113.584, 178.550 113.160, 178 113.500 C 177.450 113.840, 177 115.190, 177 116.500 C 177 119.869, 175.844 120.191, 172.045 117.881 L 168.732 115.866 169.272 117.933 C 170.119 121.173, 168.388 120.352, 166.925 116.820 C 166.201 115.071, 164.121 111.692, 162.304 109.311 C 158.341 104.119, 158.276 103.774, 161.500 105 C 165.150 106.388, 164.692 104.286, 160.890 102.203 C 159.180 101.267, 156.818 99.742, 155.640 98.815 C 153.581 97.194, 153.667 97.167, 157.882 98.100 C 160.292 98.633, 162.461 98.873, 162.701 98.632 C 162.941 98.392, 161.305 97.103, 159.066 95.767 C 154.376 92.970, 154.575 91.889, 159.573 93.016 C 163.645 93.935, 167.877 96.515, 168.661 98.558 C 168.965 99.351, 169.606 100, 170.086 100 C 170.565 100, 170.428 98.839, 169.781 97.419 C 169.082 95.884, 165.240 92.781, 160.303 89.764 C 155.736 86.974, 152 84.085, 152 83.345 C 152 81.415, 153.775 81.682, 159.895 84.531 C 162.863 85.912, 165.547 86.786, 165.860 86.473 C 167.138 85.196, 164.033 82.545, 156.725 78.673 C 146.127 73.058, 146.430 70.891, 157.239 74.999 C 163.503 77.380, 163 77.329, 163 75.586 C 163 74.808, 160.637 72.694, 157.750 70.889 C 153.995 68.541, 152.998 67.499, 154.250 67.230 C 155.213 67.023, 156 66.515, 156 66.101 C 156 64.675, 151.367 61, 149.569 61 C 148.199 61, 147.906 60.467, 148.348 58.777 C 149.801 53.222, 140.623 49.594, 137.433 54.462 C 135.330 57.672, 134.398 64.510, 135.934 65.459 C 136.779 65.981, 136.799 66.538, 136.007 67.492 C 135.185 68.482, 135.545 69.485, 137.468 71.560 C 140.468 74.797, 140.257 75.429, 136.639 74.053 C 132.876 72.622, 133.239 74.258, 138.016 80.258 C 142.220 85.537, 142.539 86.894, 139.151 85.081 C 138.040 84.486, 136.336 84, 135.363 84 C 133.995 84, 134.409 84.851, 137.187 87.750 C 140.957 91.685, 143.255 95.636, 145.540 102.114 C 147.172 106.738, 146.662 107.181, 144.507 103.013 C 142.602 99.330, 137.129 93, 135.848 93 C 135.329 93, 136.212 94.912, 137.811 97.250 C 143.288 105.256, 145.912 111.832, 142.500 109 C 140.322 107.192, 140.510 108.863, 143.972 122.060 C 145.607 128.291, 146.787 133.547, 146.594 133.740 C 146.401 133.933, 145.110 132.157, 143.725 129.794 C 142.340 127.431, 140.202 124.598, 138.974 123.499 C 136.939 121.678, 136.996 121.989, 139.615 127 C 141.195 130.025, 142.632 132.810, 142.808 133.190 C 142.983 133.569, 141.255 132.975, 138.967 131.870 C 136.679 130.764, 134.607 130.060, 134.362 130.304 C 134.118 130.549, 134.994 132.043, 136.309 133.624 C 139.368 137.303, 139.510 140.291, 136.583 139.382 C 134.580 138.759, 134.567 138.810, 136.250 140.696 C 138.404 143.111, 138.462 144, 136.465 144 C 135.257 144, 135.150 144.412, 135.965 145.934 C 136.534 146.998, 137 148.301, 137 148.829 C 137 150.220, 131.447 148.702, 125 145.547 L 119.500 142.856 124.250 143.489 C 127.405 143.910, 129 143.756, 129 143.030 C 129 142.429, 128.328 141.679, 127.506 141.364 C 126.684 141.048, 126.273 140.368, 126.592 139.851 C 127.317 138.678, 125.067 135.841, 123.956 136.527 C 123.506 136.805, 122.813 136.506, 122.415 135.862 C 121.963 135.131, 122.124 134.959, 122.845 135.405 C 124.539 136.451, 124.256 135.172, 122.126 132.154 C 121.096 130.694, 119.204 126.125, 117.923 122 C 115.764 115.050, 110.869 107.738, 109.697 109.712 C 109.439 110.145, 108.919 112.797, 108.540 115.605 C 107.752 121.457, 109.647 127.326, 113.289 130.313 L 115.500 132.125 113 131.425 C 111.625 131.041, 109.938 130.514, 109.250 130.256 C 105.334 128.784, 110.531 138.136, 115.211 140.982 L 118.440 142.946 114.564 142.317 C 110.368 141.636, 110.308 142.282, 114.169 146.586 C 116.026 148.656, 116.010 148.680, 111.988 149.886 C 106.934 151.400, 106.987 153.799, 112.127 156.140 C 114.121 157.049, 116.026 158.234, 116.360 158.774 C 116.694 159.314, 113.150 161.457, 108.484 163.536 C 100.269 167.196, 98.122 168.953, 101.750 169.044 C 102.806 169.071, 102.054 169.852, 99.853 171.015 C 97.470 172.275, 95.478 174.446, 94.103 177.287 C 90.796 184.118, 91.570 184.511, 97.750 179.138 C 104.691 173.102, 107.406 171.978, 114.815 172.071 L 120.500 172.142 114.284 173.921 C 104.901 176.605, 102.198 179.936, 109.309 180.052 C 112.276 180.101, 112.139 180.243, 107.357 182.082 C 104.528 183.170, 100.058 185.958, 97.423 188.277 C 92.425 192.676, 83.587 203.920, 84.449 204.783 C 84.723 205.056, 87.415 203.417, 90.431 201.140 C 93.447 198.863, 96.149 197, 96.436 197 C 97.673 197, 94.277 202.845, 90.766 206.758 C 88.664 209.099, 86.454 212.249, 85.854 213.758 C 83.981 218.470, 83.149 223, 84.158 223 C 84.679 223, 89.469 219.502, 94.803 215.226 C 103.585 208.185, 110.557 203.981, 118.259 201.081 L 121.018 200.043 119.374 202.552 C 117.372 205.608, 118.295 206.948, 120.825 204.658 C 121.836 203.744, 122.965 203.298, 123.335 203.668 C 123.705 204.038, 125.019 203.417, 126.254 202.288 C 127.489 201.158, 130.004 199.473, 131.843 198.543 C 133.682 197.613, 134.981 196.648, 134.732 196.398 C 134.130 195.797, 130.099 197.548, 127.094 199.715 C 124.706 201.438, 124.697 201.434, 125.925 199.140 C 126.605 197.869, 126.931 196.597, 126.648 196.314 C 126.365 196.031, 123.262 196.520, 119.753 197.400 C 116.243 198.280, 112.718 199, 111.918 199 C 111.119 199, 108.759 200.159, 106.675 201.575 C 102.183 204.627, 95.999 207.343, 96.001 206.263 C 96.002 205.844, 99.007 203.925, 102.678 202 C 106.349 200.075, 110.696 197.009, 112.337 195.186 C 113.977 193.363, 117.498 190.768, 120.160 189.419 C 122.822 188.070, 125 186.744, 125 186.471 C 125 186.199, 123.088 186.243, 120.750 186.569 C 114.726 187.409, 117.894 185.389, 124.895 183.925 C 130.987 182.652, 130.255 181.090, 123.500 180.945 C 121.300 180.898, 118.695 180.542, 117.711 180.153 C 116.727 179.764, 120.638 179.621, 126.401 179.834 C 135.925 180.187, 137.159 180.023, 139.951 178.035 C 141.641 176.832, 142.767 175.431, 142.453 174.924 C 142.139 174.416, 142.499 174, 143.252 174 C 144.006 174, 145.561 173.126, 146.708 172.057 C 147.855 170.989, 150.403 169.252, 152.370 168.198 C 157.514 165.441, 155.953 165.006, 148.220 167.040 C 144.524 168.013, 139.025 169.090, 136 169.433 L 130.500 170.057 133.586 168.279 C 135.284 167.300, 138.176 165.302, 140.012 163.837 L 143.352 161.174 139.676 159.638 C 135.340 157.826, 134.600 155.432, 138.694 156.459 C 144.018 157.796, 153.173 158.089, 152.438 156.900 C 152.056 156.282, 152.364 155.363, 153.122 154.858 C 154.200 154.139, 153.657 153.192, 150.622 150.503 L 146.743 147.066 149.872 147.963 C 151.777 148.510, 153 148.497, 153 147.930 C 153 147.419, 154.238 146.981, 155.750 146.958 C 158.500 146.916, 158.500 146.916, 155 145 L 151.500 143.084 159.372 143.042 C 166.254 143.005, 167.088 142.811, 166 141.500 C 164.969 140.257, 165.076 140.002, 166.628 140.014 C 169.832 140.037, 173.003 141.186, 172.429 142.116 C 172.127 142.604, 172.938 143.406, 174.231 143.898 C 175.524 144.389, 177.239 145.588, 178.041 146.562 C 179.389 148.197, 179.291 148.280, 176.750 147.647 C 173.519 146.842, 173.252 147.929, 175.747 151.737 C 177.433 154.310, 177.428 154.378, 175.606 153.679 C 172.965 152.666, 169.732 153.860, 170.401 155.603 C 170.824 156.706, 170.336 156.876, 168.223 156.363 C 165.518 155.705, 165.513 155.715, 167.371 157.813 C 169.586 160.314, 168.892 163, 166.031 163 C 164.914 163, 164 163.450, 164 164 C 164 164.550, 163.373 165, 162.606 165 C 161.839 165, 159.701 166.415, 157.856 168.144 C 154.784 171.022, 154.664 171.345, 156.434 171.971 C 157.757 172.439, 157.993 172.886, 157.184 173.387 C 156.533 173.789, 155.474 173.793, 154.830 173.395 C 154.043 172.909, 153.869 173.217, 154.299 174.336 C 154.729 175.458, 154.419 176, 153.346 176 C 152.045 176, 151.982 176.274, 153 177.500 C 154.022 178.732, 153.946 179, 152.573 179 C 151.165 179, 145.403 181.453, 144.107 182.603 C 143.892 182.795, 144.269 183.620, 144.947 184.436 C 145.976 185.676, 145.629 186.155, 142.840 187.343 L 139.500 188.765 142 189.819 C 143.375 190.399, 143.933 190.902, 143.241 190.937 C 141.284 191.035, 136.618 195.952, 132.744 202 C 128.592 208.479, 123.930 213.070, 123.297 211.302 C 122.802 209.918, 118 211.657, 118 213.220 C 118 213.714, 118.563 213.832, 119.250 213.483 C 119.938 213.133, 119.468 213.758, 118.206 214.870 C 116.944 215.982, 115.932 217.141, 115.956 217.446 C 116.108 219.362, 115.652 219.979, 112.507 222.121 C 108.030 225.170, 107.912 226.835, 112.368 224.082 C 116.626 221.450, 117.831 221.424, 115.487 224.015 C 114.484 225.123, 113.572 227.035, 113.461 228.265 C 113.349 229.494, 112.694 230.369, 112.004 230.208 C 111.314 230.048, 109.903 230.683, 108.868 231.619 C 107.833 232.556, 106.012 233.812, 104.822 234.411 C 102.179 235.741, 101.041 238.305, 103.515 237.356 C 104.997 236.787, 105.041 236.961, 103.887 238.810 C 102.059 241.736, 103.427 242.605, 106.595 240.530 C 108.702 239.149, 109.417 239.056, 110.050 240.080 C 110.700 241.133, 111.138 241.130, 112.424 240.063 C 115.443 237.558, 113.974 240.443, 110.250 244.333 C 107.834 246.856, 106.947 248.414, 107.756 248.710 C 108.447 248.964, 108.770 249.563, 108.474 250.042 C 108.178 250.521, 109.301 250.713, 110.969 250.469 C 112.638 250.225, 115.400 249.821, 117.107 249.572 C 118.814 249.323, 121.112 248.305, 122.213 247.309 C 123.315 246.314, 125.094 245.645, 126.168 245.823 C 127.405 246.028, 128.007 245.649, 127.811 244.790 C 127.640 244.044, 129.174 241.760, 131.220 239.714 C 133.266 237.668, 134.644 236.783, 134.283 237.747 C 133.705 239.287, 133.832 239.332, 135.325 238.117 C 136.720 236.983, 136.798 236.456, 135.762 235.180 C 134.696 233.867, 134.771 233.727, 136.250 234.281 C 137.213 234.642, 138 234.471, 138 233.902 C 138 232.173, 143.160 225.981, 144.111 226.569 C 144.600 226.871, 145 226.681, 145 226.148 C 145 225.358, 147.801 225.284, 148.750 226.048 C 148.887 226.159, 150.012 226.306, 151.250 226.375 C 152.773 226.460, 153.603 227.227, 153.820 228.750 C 154.154 231.104, 155.445 231.706, 156.500 230 C 156.840 229.450, 156.641 229, 156.059 229 C 155.477 229, 155 228.325, 155 227.500 C 155 225.676, 157.107 225.543, 158.947 227.250 C 160.045 228.268, 160.185 228.188, 159.703 226.813 C 159.307 225.685, 160.004 224.525, 161.806 223.313 C 163.288 222.316, 164.500 220.825, 164.500 220 C 164.500 219.013, 165.315 218.590, 166.882 218.762 C 168.904 218.984, 169.075 218.795, 168.010 217.512 C 167.079 216.390, 167.060 216, 167.937 216 C 168.586 216, 168.839 215.549, 168.499 214.998 C 167.692 213.693, 172.212 212, 176.505 212 C 179.573 212, 180.345 212.672, 184.990 219.392 C 188.448 224.394, 191.877 227.963, 195.597 230.433 C 198.621 232.441, 201.316 234.659, 201.586 235.363 C 201.880 236.130, 203.194 236.478, 204.866 236.233 C 208.394 235.715, 210.663 238.890, 212.282 246.608 C 213.170 250.844, 213.153 252.525, 212.207 254.041 C 211.135 255.756, 211.248 256, 213.114 256 C 214.678 256, 214.983 256.332, 214.258 257.250 C 213.716 257.938, 213.025 263.225, 212.722 269 L 212.173 279.500 215.025 270.500 C 216.594 265.550, 218.371 260.694, 218.973 259.709 C 219.575 258.724, 219.793 257.474, 219.458 256.931 C 219.122 256.388, 221.973 252.694, 225.793 248.722 C 233.592 240.612, 235.095 238.240, 236.070 232.500 L 236.750 228.500 236.875 233.275 C 236.944 235.901, 236.134 240.514, 235.076 243.525 C 234.017 246.536, 233.535 249, 234.003 249 C 235.573 249, 241.030 241.538, 242.047 238 C 242.600 236.075, 243.574 229.662, 244.212 223.750 C 244.849 217.837, 245.738 213, 246.186 213 C 246.633 213, 247 214.293, 247 215.874 C 247 217.455, 247.642 220.568, 248.426 222.791 C 249.211 225.014, 250.162 228.896, 250.540 231.417 C 251.271 236.292, 251.989 236.923, 254.021 234.475 C 255.155 233.108, 255.462 233.108, 256.972 234.475 C 259.440 236.709, 260.706 236.350, 261.300 233.250 C 262.308 227.988, 266.268 212.934, 266.565 213.232 C 266.730 213.397, 267.820 219.332, 268.987 226.421 C 271.137 239.481, 272.578 243.689, 276.291 247.750 C 279.496 251.255, 279.974 250.437, 277.904 244.989 C 276.857 242.233, 276.039 238.521, 276.086 236.739 C 276.167 233.692, 276.217 233.648, 276.934 236.006 C 278.451 240.992, 281.017 244.845, 285.376 248.682 C 289.496 252.308, 290.190 253.684, 294.898 267.547 C 297.691 275.771, 299.696 280.700, 299.353 278.500 C 299.010 276.300, 298.601 270.990, 298.445 266.700 C 298.289 262.409, 297.620 258.247, 296.958 257.450 C 295.956 256.242, 296.235 255.987, 298.628 255.921 C 300.207 255.878, 300.938 255.615, 300.250 255.338 C 298.675 254.702, 298.612 247.454, 300.142 242.899 C 301.752 238.104, 303.870 236, 307.088 236 C 308.913 236, 310.067 235.365, 310.453 234.148 C 310.776 233.129, 313.169 231.134, 315.770 229.714 C 321.055 226.831, 325.202 222.746, 329.811 215.883 L 332.913 211.267 338.117 212.439 C 342.432 213.411, 343.626 214.178, 345.098 216.923 C 346.075 218.744, 347.802 221.099, 348.937 222.156 C 350.072 223.213, 351 224.541, 351 225.106 C 351 225.672, 351.836 225.869, 352.859 225.545 C 353.932 225.204, 355.252 225.598, 355.981 226.477 C 357.374 228.156, 359.485 228.594, 358.500 227 C 358.160 226.450, 358.332 226, 358.882 226 C 359.432 226, 360.160 226.450, 360.500 227 C 361.304 228.301, 365 228.301, 365 227 C 365 226.450, 365.384 226, 365.854 226 C 367.113 226, 372 230.733, 372 231.952 C 372 232.529, 372.675 233, 373.500 233 C 374.325 233, 375 233.450, 375 234 C 375 234.550, 374.438 235.003, 373.750 235.007 C 373.063 235.010, 373.850 235.907, 375.500 237 C 377.150 238.093, 379.288 238.990, 380.250 238.993 C 381.212 238.997, 382.015 239.563, 382.033 240.250 C 382.091 242.408, 385.871 246.172, 387.637 245.828 C 388.566 245.648, 390.700 246.784, 392.379 248.353 C 394.191 250.046, 395.588 250.736, 395.817 250.050 C 396.059 249.322, 396.708 249.561, 397.569 250.697 C 398.875 252.419, 398.938 252.412, 398.968 250.550 C 398.993 249.033, 399.267 248.867, 400.200 249.800 C 401.850 251.450, 403.332 251.309, 402.663 249.565 C 402.360 248.775, 402.648 247.951, 403.302 247.733 C 403.994 247.502, 403.028 245.940, 400.996 244.001 C 397.612 240.772, 397.596 240.723, 400.500 242.469 C 402.150 243.462, 404.400 245.238, 405.500 246.416 C 406.600 247.594, 409.021 249.895, 410.880 251.529 C 413.547 253.874, 414.030 254.057, 413.174 252.399 C 412.578 251.244, 409.171 247.869, 405.604 244.899 C 399.028 239.425, 396.584 236.144, 401.904 239.932 C 405.312 242.359, 406.764 242.625, 405 240.500 C 403.524 238.722, 405.065 238.465, 406.800 240.200 C 407.647 241.047, 408 241.069, 408 240.273 C 408 239.653, 406.313 237.712, 404.250 235.960 L 400.500 232.774 405.295 235.509 C 412.139 239.411, 412.069 238.040, 405.179 233.207 C 398.937 228.828, 396.955 226.877, 396.641 224.800 C 396.532 224.085, 396.092 222.938, 395.663 222.250 C 394.617 220.575, 396.046 220.720, 398.441 222.532 C 399.509 223.339, 400.859 223.988, 401.441 223.973 C 402.570 223.944, 399.247 220.909, 389.376 212.952 C 386.008 210.237, 381.355 205.503, 379.036 202.431 C 374.670 196.649, 374.183 194.229, 378.122 197.899 C 379.363 199.055, 380.898 200, 381.534 200 C 382.170 200, 383.505 200.900, 384.500 202 C 386.304 203.994, 389.650 204.861, 388.527 203.043 C 388.174 202.472, 389.258 202.296, 391.218 202.606 C 393.023 202.891, 395.444 203.274, 396.597 203.457 C 399.909 203.983, 405.006 206.882, 411.500 211.932 C 418.435 217.325, 426.602 223, 427.430 223 C 429.910 223, 425.606 212.515, 421.399 208.308 C 419.145 206.055, 413.429 196, 414.401 196 C 414.641 196, 417.236 198.060, 420.168 200.578 C 423.101 203.096, 426.341 205.616, 427.370 206.178 C 429.044 207.092, 429 206.773, 426.953 203.131 C 423.119 196.308, 411.890 185.322, 405.903 182.534 C 400.993 180.249, 400.774 180.015, 403.500 179.974 L 406.500 179.928 403.641 177.590 C 402.069 176.304, 398.919 174.641, 396.641 173.895 L 392.500 172.539 396.500 172.190 C 402.837 171.638, 407.482 173.626, 414.040 179.697 C 419.779 185.011, 420.082 185.163, 419.442 182.413 C 418.364 177.784, 414.188 171.194, 411.865 170.457 C 410.483 170.019, 410.142 169.531, 410.892 169.067 C 412.471 168.091, 409.945 166.062, 402.689 162.480 C 399.493 160.902, 396.676 159.285, 396.430 158.886 C 396.183 158.487, 397.561 157.640, 399.491 157.003 C 401.421 156.366, 403 155.467, 403 155.004 C 403 154.542, 403.241 153.536, 403.535 152.769 C 403.850 151.947, 403.030 150.819, 401.535 150.019 C 398.982 148.652, 398.146 145.646, 400 144.500 C 401.769 143.407, 401.067 142, 398.750 141.996 C 396.700 141.993, 396.771 141.827, 399.544 140.136 C 402.296 138.458, 406.154 130.821, 404.889 129.556 C 403.645 128.312, 392.098 134.429, 388.052 138.474 L 383.526 143 387.513 143.002 L 391.500 143.004 386 145.861 C 378.544 149.735, 374.462 150.479, 374.275 148 C 374.198 146.973, 374.774 145.602, 375.556 144.953 C 377.998 142.927, 376.037 141.929, 372.850 143.577 C 368.111 146.028, 368.325 144.458, 373.156 141.341 C 376.998 138.862, 377.240 138.499, 375.250 138.200 C 372.563 137.795, 372.537 137.636, 374.635 134.434 C 376.994 130.833, 375.940 130.616, 370.600 133.600 C 368.013 135.046, 365.635 135.968, 365.317 135.650 C 364.998 135.331, 365.788 130.667, 367.072 125.285 C 368.357 119.903, 369.451 113.025, 369.503 110 C 369.567 106.330, 370.479 102.586, 372.244 98.750 C 374.944 92.881, 374.315 90.556, 371.500 96 C 370.647 97.650, 369.679 99, 369.349 99 C 367.842 99, 370.352 92.145, 373.123 88.698 C 376.415 84.601, 376.426 83.166, 373.151 84.919 C 370.441 86.370, 370 86.289, 370 84.345 C 370 83.435, 371.824 80.955, 374.053 78.835 C 378.487 74.616, 378.558 72.999, 374.274 73.762 L 371.500 74.256 374.750 70.830 C 378.685 66.683, 379.014 62.405, 375.803 57.118 C 373.039 52.567, 372.253 52.034, 368.273 52.015 C 365.940 52.004, 364.601 52.680, 363.437 54.456 C 362.552 55.807, 362.097 57.348, 362.426 57.881 C 363.321 59.329, 358.082 64.483, 353.250 66.908 C 350.913 68.081, 349 69.466, 349 69.987 C 349 70.507, 350.594 69.992, 352.543 68.842 C 357.924 65.667, 358.020 67.583, 352.722 72.447 C 346.082 78.544, 346.853 79.755, 354.358 75.015 C 361.625 70.426, 362.259 70.253, 361.820 72.984 C 361.628 74.172, 358.313 77.083, 353.562 80.234 C 343.530 86.890, 342.605 89.200, 351.921 84.334 C 362.680 78.714, 362.857 81.225, 352.232 88.738 C 343.935 94.605, 340.150 98.484, 341.452 99.785 C 341.776 100.110, 343.945 98.540, 346.271 96.296 C 350.483 92.234, 356.746 88.413, 357.673 89.340 C 357.941 89.608, 355.834 91.666, 352.990 93.913 C 350.147 96.161, 348.029 98, 348.283 98 C 348.538 98, 350.849 97.070, 353.420 95.932 C 360.673 92.724, 361.071 94.198, 354.210 98.857 C 346.971 103.773, 345.872 106.360, 352.626 102.585 C 355.170 101.163, 357.482 100, 357.763 100 C 358.044 100, 356.275 102.137, 353.833 104.750 C 351.391 107.362, 348.067 111.862, 346.446 114.749 C 343.483 120.028, 342 121.279, 342 118.500 C 342 116.505, 340.330 116.588, 339.181 118.640 C 337.843 121.032, 335.712 119.284, 336.438 116.391 C 337.146 113.572, 336.265 113.300, 334.360 115.750 C 333.082 117.393, 332.876 117.356, 330.999 115.139 C 329.684 113.587, 328.959 111.190, 328.882 108.139 C 328.780 104.157, 328.671 103.925, 328.110 106.500 C 327.119 111.054, 325.803 107.976, 325.213 99.727 C 324.734 93.044, 324.654 92.858, 323.437 95.613 C 322.205 98.403, 322.161 98.316, 322.110 93 C 322.022 83.709, 329.218 61.761, 334.206 56.105 C 336.018 54.051, 338.519 51.049, 339.763 49.435 C 341.367 47.356, 340.979 48.653, 338.433 53.885 C 336.217 58.438, 334.681 63.231, 334.428 66.385 C 334.202 69.198, 333.768 72.963, 333.463 74.750 C 332.533 80.210, 333.702 78.401, 336.463 70.113 C 338.736 63.285, 339.954 61.343, 345.522 55.665 C 349.059 52.057, 353.353 46.831, 355.063 44.052 C 358.606 38.293, 359.304 37.734, 357.724 41.920 C 356.888 44.135, 356.923 45.203, 357.869 46.342 C 358.959 47.656, 359.726 47.466, 363.959 44.834 C 369.505 41.387, 371.209 41.751, 375.350 47.263 C 381.196 55.048, 388.644 85.220, 387.732 97.428 C 387.209 104.431, 387.218 104.466, 388.717 101 C 389.550 99.075, 391.130 93, 392.229 87.500 C 393.328 82, 394.558 77.275, 394.962 77 C 396.069 76.247, 396 73.864, 394.391 57.274 C 391.564 28.127, 385.137 12.633, 373.547 7.023 L 369.092 4.866 364.681 6.817 C 357.381 10.046, 344.892 23.870, 336.509 38 C 334.388 41.575, 331.397 46.118, 329.864 48.096 C 325.836 53.291, 315.732 61.695, 315.250 60.251 C 314.999 59.498, 312.837 60.535, 309.467 63.024 C 303.426 67.487, 302.510 67.734, 301.132 65.271 C 300.223 63.646, 300.038 63.656, 298.082 65.426 C 295.882 67.417, 295.839 67.372, 295.753 63 C 295.748 62.725, 296.035 61.263, 296.391 59.750 C 297.250 56.098, 295.564 56.236, 293.341 60 C 291.045 63.886, 290.238 63.783, 289.434 59.500 C 288.667 55.414, 288.007 55.169, 286.056 58.250 C 284.691 60.405, 284.559 60.226, 282.912 54 C 281.926 50.270, 281.139 48.565, 281.065 50 C 280.944 52.349, 280.853 52.390, 279.550 50.671 C 278.303 49.026, 278.097 49.428, 277.500 54.671 C 277.135 57.877, 276.569 61.400, 276.242 62.500 C 275.695 64.340, 275.589 64.300, 274.923 62 C 274.230 59.606, 274.199 59.627, 274.199 62.500 C 274.199 64.150, 274.517 66.625, 274.906 68 L 275.613 70.500 276.365 68 C 277.078 65.628, 277.161 65.602, 277.988 67.500 C 278.799 69.360, 278.864 69.331, 278.930 67.083 C 278.968 65.754, 279.317 64.983, 279.704 65.371 C 280.091 65.758, 280.507 69.995, 280.629 74.787 C 280.908 85.736, 281.853 92.209, 283.064 91.460 C 283.579 91.142, 284 92.259, 284 93.941 C 284 95.623, 283.601 97, 283.114 97 C 282.626 97, 281.876 99.137, 281.446 101.750 C 281.017 104.362, 280.483 105.713, 280.260 104.750 C 279.676 102.235, 278.013 102.592, 277.930 105.250 C 277.863 107.397, 277.820 107.408, 277 105.500 C 276.278 103.819, 276.129 104.013, 276.070 106.719 C 276.018 109.111, 275.626 109.794, 274.542 109.378 C 273.543 108.994, 272.886 109.712, 272.454 111.659 C 271.390 116.464, 271.211 116.607, 270.468 113.250 C 270.073 111.462, 269.356 110, 268.875 110 C 268.394 110, 268 109.298, 268 108.441 C 268 106.068, 266.019 107.804, 265.868 110.309 C 265.781 111.757, 265.463 111.313, 264.931 109 C 264.419 106.779, 264.302 108.788, 264.611 114.500 C 265.224 125.839, 263.616 124.219, 261.917 111.786 C 260.751 103.253, 259.393 100.781, 258.258 105.123 C 257.708 107.224, 257.688 107.221, 256.401 104.873 L 255.100 102.500 254.413 105.813 C 254.005 107.775, 253.358 108.758, 252.825 108.225 C 252.292 107.692, 252.338 106.240, 252.938 104.663 C 253.540 103.080, 253.573 102, 253.021 102 C 252.010 102, 251.376 105.255, 250.610 114.392 C 249.958 122.162, 248 124.317, 248 117.265 C 248 114.441, 248.439 110.976, 248.975 109.565 C 249.512 108.154, 249.560 107, 249.082 107 C 247.928 107, 246.685 109.903, 246.513 113 C 246.437 114.375, 246.245 117.075, 246.085 119 L 245.795 122.500 244.934 119 C 244.461 117.075, 244.288 113.250, 244.551 110.500 L 245.029 105.500 243.665 110.266 C 241.820 116.714, 241.023 117.186, 240.882 111.917 C 240.773 107.844, 240.704 107.734, 240 110.500 C 239.580 112.150, 239.183 112.745, 239.118 111.821 C 239.053 110.898, 238.384 109.527, 237.632 108.775 C 236.879 108.022, 235.935 106.370, 235.533 105.103 C 234.748 102.632, 233.494 103.253, 232.713 106.500 C 232.436 107.651, 232.183 106.938, 232.116 104.821 C 232.052 102.798, 231.408 100.548, 230.685 99.821 C 229.509 98.639, 228.557 85, 229.650 85 C 229.870 85, 230.522 86.237, 231.099 87.750 C 232.128 90.444, 232.180 90.459, 233.646 88.500 C 234.768 87, 235.007 84.875, 234.603 80 L 234.063 73.500 235.395 78.780 C 237.040 85.301, 237.978 86.400, 238.070 81.917 C 238.109 80.037, 238.527 77.600, 239 76.500 C 239.657 74.971, 239.880 75.559, 239.945 79 C 240.007 82.261, 240.294 83.087, 240.985 82 C 241.733 80.825, 242.085 81.217, 242.608 83.812 C 243.290 87.201, 244.429 87.068, 245.287 83.500 C 245.552 82.400, 245.820 84.313, 245.884 87.750 C 246.007 94.386, 247.183 95.780, 248.838 91.250 C 249.390 89.737, 249.878 89.008, 249.921 89.628 C 249.964 90.248, 250.722 92.484, 251.604 94.595 C 252.976 97.877, 253.377 98.205, 254.367 96.851 C 255.344 95.516, 255.726 95.481, 256.802 96.633 C 258.665 98.627, 259.358 98.346, 260.840 95 C 262.083 92.190, 265 90.788, 265 93 C 265 93.550, 265.508 94, 266.128 94 C 266.861 94, 267.066 92.687, 266.714 90.250 C 266.416 88.188, 266.552 85.600, 267.016 84.500 C 267.702 82.874, 267.873 82.816, 267.930 84.191 C 267.968 85.121, 268.450 86.160, 269 86.500 C 269.623 86.885, 269.994 84.931, 269.985 81.309 C 269.974 77.190, 269.687 75.936, 269 77 C 268.282 78.112, 268.027 77.502, 268.015 74.643 C 268.004 71.703, 267.658 70.917, 266.562 71.338 C 265.623 71.698, 265.016 71.129, 264.812 69.695 C 264.393 66.750, 262.585 66.898, 262.159 69.912 C 261.909 71.685, 261.596 71.964, 260.979 70.966 C 260.319 69.899, 259.702 70.132, 258.103 72.053 C 256.983 73.399, 256.052 75.261, 256.033 76.191 C 255.998 77.981, 254 79.847, 254 78.090 C 254 77.525, 253.325 77.322, 252.500 77.638 C 251.501 78.022, 250.995 77.594, 250.985 76.357 C 250.972 74.792, 250.817 74.736, 250 76 C 249.245 77.169, 249.027 76.893, 249.015 74.750 C 249.006 72.995, 248.464 72, 247.519 72 C 246.705 72, 245.738 70.804, 245.371 69.342 C 244.732 66.795, 244.645 66.764, 243.286 68.592 C 241.969 70.364, 241.916 70.304, 242.542 67.752 C 242.912 66.241, 242.906 64.216, 242.527 63.252 C 241.951 61.788, 241.628 61.993, 240.558 64.500 C 239.307 67.431, 239.260 67.341, 238.503 60.575 C 237.812 54.391, 237.583 53.849, 236.365 55.516 C 235.203 57.104, 235 57.140, 235 55.756 C 235 54.862, 234.536 52.909, 233.968 51.417 C 232.997 48.862, 232.859 48.811, 231.595 50.539 C 230.324 52.277, 230.212 52.245, 229.476 49.937 C 228.741 47.630, 228.595 47.740, 226.732 52 C 225.650 54.475, 224.555 55.935, 224.297 55.244 C 223.503 53.113, 222 54.956, 222 58.059 C 222 61.483, 220.996 61.825, 219.232 59 C 217.133 55.638, 215.676 56.574, 216.359 60.846 C 217.105 65.510, 216.295 66.577, 213.755 64.278 C 211.938 62.634, 211.766 62.658, 210.161 64.786 C 208.530 66.949, 208.395 66.965, 205.988 65.277 C 202.399 62.760, 196.790 60, 195.266 60 C 192.819 60, 185.142 51.889, 178.873 42.678 C 164.408 21.427, 153.721 9.453, 146.543 6.453 C 142.377 4.713, 143.334 4.664, 138.500 6.866 M 158 54.116 C 158 55.335, 158.282 56.051, 158.627 55.707 C 158.972 55.362, 160.547 55.748, 162.127 56.566 C 165.985 58.561, 165.749 57.808, 161.500 54.568 C 158.021 51.915, 158 51.912, 158 54.116 M 350.278 55.250 C 349.746 55.938, 348.923 57.175, 348.448 58 C 347.716 59.273, 347.949 59.260, 349.988 57.914 C 352.542 56.228, 353.805 54, 352.206 54 C 351.677 54, 350.810 54.563, 350.278 55.250 M 160.324 60.361 C 160.851 61.764, 160.650 62.080, 159.511 61.643 C 157.833 60.999, 157.420 62.524, 159.008 63.505 C 159.562 63.847, 160.674 63.469, 161.480 62.663 C 162.766 61.377, 162.742 61.034, 161.285 59.849 C 159.832 58.668, 159.712 58.731, 160.324 60.361 M 349.388 61.531 C 348.475 62.923, 347.982 64.315, 348.291 64.624 C 348.600 64.933, 349.572 63.794, 350.452 62.093 C 352.380 58.364, 351.698 58.004, 349.388 61.531 M 161.500 67 C 161.840 67.550, 162.316 68, 162.559 68 C 162.802 68, 163 67.550, 163 67 C 163 66.450, 162.523 66, 161.941 66 C 161.359 66, 161.160 66.450, 161.500 67 M 276.975 75.565 C 275.739 78.816, 275.712 82.296, 276.929 81.544 C 277.439 81.229, 278.053 81.990, 278.292 83.235 C 278.532 84.481, 278.789 82.688, 278.864 79.250 C 279.011 72.507, 278.510 71.529, 276.975 75.565 M 288.158 86 C 288.158 87.375, 288.385 87.938, 288.662 87.250 C 288.940 86.563, 288.940 85.438, 288.662 84.750 C 288.385 84.063, 288.158 84.625, 288.158 86 M 395.663 88.500 C 395.331 90.700, 394.792 97.225, 394.465 103 L 393.869 113.500 397.434 110.054 C 400.744 106.855, 401.958 103.291, 400.302 101.635 C 399.918 101.251, 398.999 101.964, 398.260 103.219 L 396.917 105.500 397.708 103 C 398.676 99.944, 398.325 90.051, 397.136 86.845 C 396.346 84.718, 396.209 84.871, 395.663 88.500 M 113.504 92.250 C 113.098 95.963, 113.009 99.926, 113.305 101.058 C 113.746 102.745, 113.588 102.903, 112.421 101.935 C 111.239 100.954, 111 101.342, 111 104.243 C 111 108.042, 114.474 113.443, 116.222 112.363 C 117.489 111.579, 116.655 91.841, 115.192 88 C 114.379 85.864, 114.133 86.482, 113.504 92.250 M 223.031 86.500 C 223.031 87.050, 223.467 88.175, 224 89 C 224.533 89.825, 224.969 90.050, 224.969 89.500 C 224.969 88.950, 224.533 87.825, 224 87 C 223.467 86.175, 223.031 85.950, 223.031 86.500 M 295.615 105 C 294.134 110.106, 293.567 111.071, 292.972 109.500 C 292.376 107.926, 292.106 107.819, 291.703 109 C 289.838 114.470, 289.674 114.595, 289.071 111 L 288.485 107.500 285.742 112.946 C 284.234 115.942, 283 118.979, 283 119.696 C 283 121.365, 281.023 121.416, 280.930 119.750 C 280.891 119.063, 280.473 119.400, 280 120.500 C 279.415 121.861, 279.108 122.020, 279.040 121 C 278.960 119.813, 278.724 119.869, 277.909 121.270 C 277.342 122.244, 277.157 123.920, 277.498 124.994 C 277.839 126.069, 277.358 128.551, 276.428 130.510 C 274.756 134.035, 275.245 136.808, 277.039 133.971 C 277.763 132.827, 277.991 133.055, 278.066 135 C 278.161 137.452, 278.189 137.442, 279.536 134.500 L 280.910 131.500 281.038 134.500 C 281.160 137.353, 281.286 137.255, 283.610 132.500 L 286.054 127.500 285.596 132 C 285.165 136.234, 285.231 136.382, 286.704 134.500 C 288.087 132.732, 288.195 132.714, 287.630 134.343 C 287.279 135.356, 286.746 137.381, 286.446 138.843 C 285.925 141.381, 285.981 141.359, 287.700 138.357 C 289.922 134.477, 297.688 126, 299.021 126 C 299.559 126, 300 125.550, 300 125 C 300 124.450, 300.681 124, 301.513 124 C 303.037 124, 308.511 113.177, 307.498 112.165 C 307.208 111.874, 305.402 113.157, 303.485 115.015 C 301.309 117.124, 299.992 117.849, 299.978 116.946 C 299.963 115.994, 299.352 116.284, 298.189 117.795 C 297.218 119.057, 296.103 119.770, 295.712 119.378 C 294.458 118.125, 294.949 113.007, 296.558 110.551 C 297.573 109.003, 298.009 106.485, 297.808 103.337 L 297.500 98.500 295.615 105 M 213.534 103.250 C 213.915 105.037, 215.102 108.446, 216.172 110.824 C 217.634 114.075, 217.888 115.812, 217.195 117.824 L 216.272 120.500 212.136 116.208 C 208.398 112.329, 207.999 112.137, 207.985 114.208 C 207.972 116.272, 207.627 116.102, 204.523 112.500 C 202.627 110.300, 201.058 108.776, 201.038 109.114 C 200.948 110.582, 206.660 122.007, 207.209 121.458 C 207.544 121.123, 208.122 121.808, 208.494 122.980 C 208.865 124.151, 209.694 124.933, 210.335 124.716 C 210.976 124.499, 212.026 125.486, 212.669 126.911 C 213.596 128.965, 213.854 129.111, 213.919 127.615 C 213.991 125.934, 214.197 125.988, 215.830 128.115 C 216.836 129.427, 218.009 131.400, 218.437 132.500 L 219.215 134.500 219.987 132.500 C 220.659 130.758, 220.892 130.951, 221.789 134 C 222.356 135.925, 222.860 136.657, 222.910 135.628 C 222.984 134.079, 223.259 133.970, 224.500 135 C 225.786 136.068, 226 135.729, 226 132.622 C 226 130.630, 226.450 129, 227 129 C 227.550 129, 228 130.093, 228 131.429 C 228 132.764, 228.599 134.456, 229.330 135.188 C 230.062 135.919, 230.454 137.139, 230.201 137.898 C 229.922 138.734, 230.186 139.003, 230.870 138.580 C 231.492 138.196, 232 137.289, 232 136.563 C 232 135.838, 232.759 134.627, 233.687 133.872 C 235.184 132.655, 235.297 132.726, 234.685 134.500 C 234.012 136.451, 234.031 136.453, 235.473 134.592 C 236.700 133.009, 236.724 132.499, 235.616 131.592 C 234.882 130.992, 233.711 128.371, 233.016 125.769 C 232.320 123.167, 231.175 120.560, 230.472 119.977 C 229.769 119.393, 227.917 116.347, 226.358 113.208 C 224.058 108.579, 223.458 107.933, 223.186 109.790 L 222.850 112.080 220.925 109.632 C 219.866 108.286, 218.955 106.581, 218.900 105.842 C 218.845 105.104, 218.487 105.625, 218.103 107 C 217.472 109.260, 217.277 109.044, 216.073 104.750 C 214.574 99.407, 212.447 98.150, 213.534 103.250 M 239.648 104.474 C 239.340 105.278, 239.471 106.173, 239.939 106.462 C 240.407 106.752, 241.043 106.331, 241.352 105.526 C 241.660 104.722, 241.529 103.827, 241.061 103.538 C 240.593 103.248, 239.957 103.669, 239.648 104.474 M 398.836 110.750 C 397.958 112.263, 396.486 116.133, 395.563 119.351 C 394.640 122.569, 392.843 127.560, 391.569 130.441 L 389.252 135.680 395.128 131.756 C 402.125 127.083, 404 124.661, 404 120.292 C 404 116.635, 401.898 108, 401.008 108 C 400.691 108, 399.713 109.237, 398.836 110.750 M 218 111.500 C 218 112.325, 218.436 113, 218.969 113 C 219.501 113, 219.678 112.325, 219.362 111.500 C 219.045 110.675, 218.609 110, 218.393 110 C 218.177 110, 218 110.675, 218 111.500 M 267.787 115 C 268.029 116.650, 268.401 118, 268.613 118 C 268.826 118, 269 116.650, 269 115 C 269 113.350, 268.628 112, 268.173 112 C 267.718 112, 267.545 113.350, 267.787 115 M 265.921 116.751 C 266.399 120.202, 266.468 120.272, 266.798 117.628 C 266.995 116.049, 266.762 114.362, 266.279 113.879 C 265.776 113.376, 265.623 114.601, 265.921 116.751 M 199.500 117 C 199.840 117.550, 200.316 118, 200.559 118 C 200.802 118, 201 117.550, 201 117 C 201 116.450, 200.523 116, 199.941 116 C 199.359 116, 199.160 116.450, 199.500 117 M 309.500 117 C 309.160 117.550, 309.359 118, 309.941 118 C 310.523 118, 311 117.550, 311 117 C 311 116.450, 310.802 116, 310.559 116 C 310.316 116, 309.840 116.450, 309.500 117 M 234.158 120 C 234.158 121.375, 234.385 121.938, 234.662 121.250 C 234.940 120.563, 234.940 119.438, 234.662 118.750 C 234.385 118.063, 234.158 118.625, 234.158 120 M 255.158 125 C 255.158 126.375, 255.385 126.938, 255.662 126.250 C 255.940 125.563, 255.940 124.438, 255.662 123.750 C 255.385 123.063, 255.158 123.625, 255.158 125 M 371.156 128.429 C 364.162 135.824, 364.593 136.885, 371.703 129.775 C 374.839 126.639, 377.159 123.826, 376.858 123.525 C 376.557 123.224, 373.991 125.431, 371.156 128.429 M 329 129.624 C 326.525 131.442, 323.375 133.869, 322 135.019 C 319.834 136.830, 319.792 136.969, 321.684 136.055 C 324.937 134.484, 325.875 134.762, 325.260 137.114 C 324.791 138.907, 325.033 139.124, 326.854 138.546 C 328.448 138.040, 329 138.283, 329 139.492 C 329 140.430, 329.470 140.827, 330.112 140.431 C 330.723 140.053, 331.602 140.357, 332.065 141.106 C 332.704 142.138, 333.785 141.443, 336.532 138.234 C 338.709 135.691, 341.023 133.994, 342.328 133.985 C 344.104 133.972, 344.227 133.790, 343 132.985 C 341.409 131.940, 341.603 131.684, 345.992 129.047 C 348.216 127.710, 347.162 127.313, 340 126.792 C 333.873 126.347, 333.242 126.510, 329 129.624 M 177.372 127.793 C 177.642 128.229, 174.856 128.426, 171.181 128.231 L 164.500 127.875 171.930 134.938 C 179.419 142.056, 181.467 143.380, 180.304 140.350 C 179.780 138.985, 180.130 138.816, 182.336 139.369 C 184.378 139.882, 185 139.670, 185 138.460 C 185 137.592, 185.450 137.160, 186 137.500 C 187.400 138.365, 187.251 136.651, 185.800 135.200 C 184.159 133.559, 185.508 133.694, 189.050 135.526 C 190.741 136.400, 192 136.614, 192 136.026 C 192 135.462, 191.631 135, 191.181 135 C 190.730 135, 187.949 133.200, 185 131 C 180.205 127.422, 176.068 125.683, 177.372 127.793 M 135 136.393 C 135 136.609, 135.698 137.054, 136.552 137.382 C 137.442 137.723, 137.843 137.555, 137.493 136.989 C 136.906 136.038, 135 135.583, 135 136.393 M 210.810 141.072 C 212.630 142.800, 214.279 144.053, 214.474 143.857 C 215.135 143.190, 211.509 139.406, 209.500 138.666 C 208.121 138.159, 208.528 138.906, 210.810 141.072 M 295.564 139.707 C 295.022 141.132, 295.136 141.247, 296.124 140.267 C 296.808 139.588, 297.115 138.781, 296.807 138.474 C 296.499 138.166, 295.940 138.721, 295.564 139.707 M 299.250 139.674 C 298.012 140.538, 297.014 142.202, 297.032 143.372 C 297.061 145.365, 297.219 145.322, 299.532 142.694 C 300.889 141.151, 302 139.464, 302 138.944 C 302 137.765, 301.979 137.771, 299.250 139.674 M 339 141.525 C 339 142.363, 337.875 143.477, 336.500 144 C 333.509 145.137, 333.151 148, 336 148 C 338.229 148, 338.509 149.181, 336.965 152.066 C 336.061 153.755, 336.283 154.015, 338.715 154.118 C 340.247 154.184, 342.124 154.150, 342.886 154.043 C 343.748 153.923, 344.051 154.425, 343.687 155.374 C 343.284 156.424, 343.558 156.723, 344.570 156.335 C 345.773 155.873, 345.858 156.243, 345.043 158.386 C 344.256 160.457, 344.350 161, 345.493 161 C 346.287 161, 346.708 161.597, 346.428 162.327 C 346.098 163.188, 347.325 164.117, 349.926 164.976 C 352.130 165.703, 353.737 166.616, 353.498 167.004 C 353.258 167.392, 354.167 168.748, 355.518 170.017 C 357.306 171.697, 357.692 172.666, 356.935 173.578 C 356.170 174.500, 356.442 175.005, 357.962 175.488 C 359.099 175.849, 359.795 176.523, 359.509 176.986 C 359.223 177.449, 360.346 178.428, 362.006 179.163 C 363.779 179.948, 364.816 181.037, 364.521 181.805 C 364.215 182.603, 365.243 183.537, 367.163 184.207 C 370.102 185.231, 370.186 185.391, 368.462 186.651 C 366.727 187.920, 366.763 188.004, 369.059 188.070 C 371.125 188.130, 371.216 188.252, 369.653 188.867 C 367.297 189.794, 367.947 190.357, 379.131 197.079 C 387.408 202.053, 387.459 202.069, 384.051 198.553 C 381.120 195.528, 380.899 195, 382.568 195 C 383.646 195, 386.933 195.879, 389.872 196.953 C 392.829 198.034, 396.408 198.668, 397.883 198.373 C 399.881 197.974, 401.797 198.738, 405.525 201.421 C 410.713 205.156, 414.984 207.350, 415.691 206.643 C 415.918 206.415, 412.862 204.265, 408.900 201.865 C 404.938 199.464, 400.527 196.357, 399.098 194.961 C 397.669 193.564, 394.250 191.105, 391.500 189.495 C 388.102 187.507, 387.044 186.457, 388.198 186.221 C 389.131 186.030, 390.819 186.368, 391.948 186.972 C 393.076 187.576, 394 187.839, 394 187.556 C 394 186.658, 386.661 183.255, 382.046 182.012 C 374.973 180.108, 365.924 175.639, 366.437 174.304 C 366.690 173.643, 366.092 172.847, 365.107 172.534 C 364.122 172.221, 362.288 170.871, 361.032 169.534 L 358.747 167.102 361.419 166.431 C 363.105 166.008, 366.405 166.542, 370.366 167.880 C 379.434 170.944, 379.907 170.558, 373.524 165.303 C 368.330 161.027, 367.977 160.490, 369.583 159.316 C 370.553 158.606, 372.828 157.748, 374.638 157.408 C 376.448 157.069, 378.450 156.163, 379.087 155.395 C 380.546 153.638, 379.587 153.644, 373.432 155.434 C 369.085 156.698, 363.154 157.390, 359.191 157.097 C 358.416 157.040, 358.193 156.497, 358.644 155.768 C 359.063 155.090, 359.462 153.762, 359.532 152.816 C 359.602 151.871, 360.748 150.146, 362.079 148.984 L 364.500 146.871 359.750 147.313 C 354.524 147.799, 353.827 147.062, 357.250 144.674 C 359.379 143.190, 359.069 143.100, 351.500 143.021 C 344.242 142.944, 343.680 142.800, 345.441 141.468 C 347.247 140.102, 347.091 140, 343.191 140 C 340.102 140, 339 140.401, 339 141.525 M 100.311 154.075 C 98.006 155.216, 95.531 156.870, 94.811 157.751 C 94.068 158.658, 95.667 158.122, 98.500 156.512 C 106.522 151.954, 107.643 150.446, 100.311 154.075 M 407 152.229 C 408.166 153.344, 417 158.144, 417 157.663 C 417 156.763, 411.629 153.301, 409 152.507 C 407.625 152.091, 406.725 151.967, 407 152.229 M 131.500 156 C 131.840 156.550, 132.879 156.993, 133.809 156.985 C 135.266 156.971, 135.293 156.835, 134 156 C 132.042 154.734, 130.718 154.734, 131.500 156 M 363 168.950 C 364.375 170.018, 366.313 171.106, 367.307 171.368 C 370.468 172.198, 367.260 169.282, 363.692 168.081 L 360.500 167.007 363 168.950 M 144 170.653 C 142.622 171.379, 142.173 171.970, 143 171.970 C 144.724 171.969, 147.674 170.299, 146.971 169.722 C 146.712 169.509, 145.375 169.928, 144 170.653 M 285.079 170.583 C 285.127 171.748, 285.364 171.985, 285.683 171.188 C 285.972 170.466, 285.936 169.603, 285.604 169.271 C 285.272 168.939, 285.036 169.529, 285.079 170.583 M 225.996 173 C 225.968 176.661, 224.897 179.187, 223.388 179.148 C 222.900 179.136, 222.607 179.997, 222.738 181.063 C 223.112 184.101, 222.221 183.389, 218.905 178 C 217.213 175.250, 215.670 173, 215.477 173 C 215.284 173, 215.381 174.575, 215.694 176.500 C 216.161 179.381, 215.953 180, 214.514 180 C 213.190 180, 212.882 180.605, 213.245 182.500 C 213.508 183.875, 213.412 185, 213.032 185 C 212.652 185, 212.377 186.012, 212.421 187.250 C 212.477 188.849, 211.921 189.511, 210.499 189.537 C 209.398 189.558, 207.942 189.918, 207.262 190.338 C 206.583 190.758, 204.446 190.665, 202.513 190.131 C 200.413 189.551, 199 189.531, 199 190.081 C 199 190.586, 199.353 191, 199.784 191 C 200.216 191, 201.366 192.350, 202.341 194 C 204.028 196.855, 204.028 197, 202.357 197 C 201.058 197, 200.893 197.293, 201.722 198.122 C 202.958 199.358, 202.345 202, 200.822 202 C 200.291 202, 199.182 201.325, 198.357 200.500 C 197.532 199.675, 195.877 198.993, 194.679 198.985 C 193.104 198.974, 192.870 198.735, 193.834 198.124 C 194.916 197.438, 194.881 197.168, 193.648 196.695 C 192.813 196.375, 191.911 196.650, 191.644 197.306 C 191.376 197.963, 191.122 197.723, 191.079 196.773 C 191.036 195.823, 189.887 194.317, 188.526 193.425 C 186.260 191.940, 185.919 191.939, 184.455 193.402 C 183.576 194.281, 182.102 195.014, 181.179 195.032 C 180.255 195.049, 178.626 195.724, 177.559 196.532 C 175.332 198.216, 172.567 198.510, 173.525 196.960 C 173.952 196.268, 173.218 196.180, 171.334 196.696 C 169.775 197.123, 166.925 197.377, 165 197.260 C 160.409 196.981, 158.016 197.774, 159.911 198.945 C 160.869 199.537, 160.275 200, 157.885 200.525 C 156.025 200.934, 153.603 202.093, 152.502 203.101 C 151.401 204.110, 149.375 205.887, 148 207.051 C 146.005 208.740, 145.893 209.041, 147.444 208.541 C 149.340 207.930, 149.342 207.965, 147.539 209.957 C 146.522 211.081, 146.140 212, 146.690 212 C 147.240 212, 148.547 211.051, 149.595 209.892 C 150.643 208.733, 152.850 206.856, 154.500 205.722 L 157.500 203.659 154.573 206.819 C 152.963 208.557, 151.908 210.241, 152.228 210.562 C 152.894 211.228, 160.389 206.766, 163.750 203.702 C 164.988 202.574, 166 201.976, 166 202.373 C 166 202.771, 164.804 204.203, 163.343 205.558 C 161.882 206.912, 160.885 208.218, 161.127 208.460 C 161.593 208.926, 163.514 207.911, 169.080 204.254 C 170.961 203.018, 173.400 202.042, 174.500 202.085 C 176.090 202.147, 175.907 202.424, 173.611 203.438 L 170.723 204.714 173.611 205.523 C 175.200 205.968, 181.729 206.416, 188.120 206.519 C 197.069 206.662, 200.281 207.083, 202.093 208.352 C 203.386 209.259, 205.478 210, 206.742 210 C 208.742 210, 208.952 209.645, 208.373 207.250 C 208.007 205.738, 207.340 203.503, 206.892 202.285 C 206.435 201.045, 206.477 199.823, 206.988 199.507 C 208.379 198.648, 210 202.432, 210 206.540 C 210 209.070, 210.893 211.346, 212.869 213.856 C 218.148 220.560, 224 234.780, 224 240.904 C 224 244.514, 225.532 243.202, 227.408 237.987 C 229.431 232.359, 228.975 228.704, 225.828 225.332 C 224.289 223.682, 223.966 222.430, 224.480 220.093 C 224.850 218.405, 225.587 216.755, 226.117 216.428 C 226.693 216.072, 226.830 216.828, 226.459 218.308 C 225.930 220.414, 228.749 226.687, 231.710 229.992 C 232.348 230.704, 234.429 226.846, 234.672 224.500 C 234.785 223.400, 235.196 221.196, 235.584 219.601 C 236.086 217.539, 235.960 216.907, 235.145 217.410 C 233.599 218.366, 233.705 216.951, 235.500 212.654 C 237.203 208.579, 237.624 199.494, 235.994 202 C 235.338 203.009, 235.229 201.423, 235.662 197.153 C 236.140 192.432, 235.969 190.599, 234.992 189.995 C 234.266 189.546, 233.469 186.646, 233.208 183.496 C 232.943 180.294, 232.403 178.348, 231.973 179.043 C 231.479 179.844, 230.299 178.384, 228.617 174.889 L 226.024 169.500 225.996 173 M 281.470 177.750 C 279.985 180.363, 278.538 184.412, 278.255 186.750 C 277.971 189.088, 277.348 191, 276.870 191 C 276.391 191, 276 193.160, 276 195.800 C 276 198.440, 275.483 201.117, 274.852 201.748 C 273.330 203.270, 275.341 213.614, 277.656 216.173 C 278.566 217.178, 278.828 218, 278.238 218 C 277.649 218, 276.940 217.438, 276.662 216.750 C 276.385 216.063, 276.122 216.648, 276.079 218.050 C 276.036 219.453, 276.551 221.151, 277.225 221.825 C 278.125 222.725, 278.163 223.510, 277.365 224.787 C 276.640 225.947, 276.598 227.351, 277.236 229.012 C 278.159 231.412, 278.234 231.431, 279.346 229.530 C 279.981 228.447, 281.850 226.249, 283.500 224.645 C 285.306 222.889, 286.368 220.943, 286.168 219.754 C 285.952 218.463, 286.298 217.933, 287.168 218.222 C 289.702 219.066, 289.105 221.878, 285.560 225.802 C 281.382 230.426, 281.087 233.318, 284.182 239.290 L 286.364 243.500 288.204 235.557 C 289.943 228.048, 293.789 220.105, 299.584 212.055 C 300.948 210.160, 301.812 207.953, 301.505 207.152 C 300.804 205.325, 302.824 199, 304.109 199 C 305.917 199, 306.141 201.827, 304.572 204.860 C 302.002 209.831, 302.446 211.357, 306.250 210.622 C 308.038 210.277, 310.247 209.095, 311.160 207.997 C 313.134 205.623, 314 205.464, 314 207.475 C 314 208.597, 314.778 208.805, 317.250 208.343 C 319.038 208.009, 320.928 207.345, 321.450 206.868 C 321.972 206.390, 324.477 206, 327.016 206 C 329.555 206, 334.198 205.526, 337.334 204.946 C 342.470 203.997, 343.420 204.108, 346.905 206.067 C 351.611 208.711, 354.364 208.321, 351.350 205.438 C 350.236 204.372, 348.464 202.931, 347.412 202.236 C 346.361 201.540, 346.955 201.660, 348.732 202.502 C 350.510 203.344, 352.958 205.377, 354.172 207.019 C 355.706 209.094, 356.609 209.633, 357.132 208.786 C 357.547 208.115, 357.370 206.946, 356.740 206.187 C 356.110 205.428, 357.274 205.750, 359.328 206.903 C 363.228 209.094, 365.009 209.517, 364.988 208.250 C 364.975 207.475, 359.787 203.781, 354.514 200.792 C 352.804 199.823, 352.175 199.066, 353.059 199.042 C 353.916 199.019, 355.491 199.661, 356.559 200.468 C 358.711 202.096, 360.006 202.391, 359.989 201.250 C 359.982 200.838, 358.295 199.732, 356.239 198.794 C 353.397 197.498, 350.386 197.164, 343.690 197.405 C 335.684 197.692, 333.364 196.939, 338.500 195.719 C 339.600 195.458, 338.107 195.249, 335.182 195.255 C 332.257 195.260, 329.355 194.755, 328.732 194.132 C 327.889 193.289, 327.949 193, 328.967 193 C 329.718 193, 330.101 192.768, 329.818 192.485 C 329.535 192.201, 327.877 192.569, 326.135 193.301 C 324.392 194.034, 323.244 194.911, 323.584 195.250 C 324.213 195.880, 311.934 202, 310.042 202 C 308.607 202, 308.733 199.669, 310.250 198.141 C 311.252 197.131, 311.153 197.014, 309.750 197.548 C 307.243 198.502, 307.540 196.292, 310.428 192.505 L 312.857 189.321 308.307 190.819 C 304.154 192.186, 303.676 192.172, 302.829 190.659 C 302.318 189.746, 301.290 189, 300.544 189 C 299.647 189, 299.378 188.270, 299.751 186.844 C 300.079 185.590, 299.913 184.936, 299.354 185.281 C 298.814 185.615, 298.349 184.312, 298.292 182.305 C 298.236 180.342, 297.633 178.391, 296.952 177.970 C 296.271 177.549, 295.961 176.259, 296.263 175.102 C 297.217 171.455, 296.066 172.807, 293.370 178.500 C 291.938 181.525, 290.605 184, 290.408 184 C 290.211 184, 290.340 182.537, 290.694 180.750 C 291.248 177.950, 291.131 177.670, 289.846 178.726 C 288.597 179.751, 288.132 179.384, 286.990 176.476 C 286.240 174.564, 285.299 173, 284.899 173 C 284.499 173, 282.956 175.137, 281.470 177.750 M 376 176.600 C 376 177.808, 384.828 180.948, 388 180.868 L 391.500 180.781 387.407 179.969 C 385.155 179.523, 381.668 178.470, 379.657 177.630 C 377.646 176.790, 376 176.326, 376 176.600 M 133.565 186.224 C 132.185 186.996, 132.062 187.420, 133.042 188.026 C 134.049 188.648, 133.968 189.175, 132.662 190.481 C 130.326 192.817, 130.553 192.986, 134.250 191.663 C 139.158 189.906, 140.114 188.176, 137.185 186.347 C 135.932 185.565, 134.810 185.527, 133.565 186.224 M 376 187.500 C 377.057 188.774, 376.812 189.002, 374.372 189.015 C 372.150 189.027, 371.840 189.250, 373 190 C 374.848 191.194, 382 191.317, 382 190.155 C 382 188.716, 378.437 186, 376.549 186 C 375.068 186, 374.972 186.261, 376 187.500 M 168.500 199.536 C 166.850 200.292, 166.201 200.930, 167.059 200.955 C 167.916 200.980, 169.491 200.339, 170.559 199.532 C 172.929 197.739, 172.423 197.740, 168.500 199.536 M 161.559 201.532 C 160.491 202.339, 160.099 203, 160.686 203 C 161.274 203, 162.315 202.325, 163 201.500 C 164.557 199.624, 164.067 199.634, 161.559 201.532 M 394.557 201.418 C 396.652 202.950, 397.601 202.782, 396.541 201.067 C 396.179 200.480, 395.148 200, 394.250 200 C 392.885 200, 392.935 200.232, 394.557 201.418 M 215.843 206.501 C 215.470 212.485, 216.373 213.884, 217.375 208.875 C 218.269 204.406, 218.147 201, 217.093 201 C 216.593 201, 216.031 203.476, 215.843 206.501 M 294.667 201.667 C 293.740 202.593, 293.960 209.080, 295 211.500 C 295.607 212.914, 295.880 211.668, 295.930 207.250 C 296 200.956, 295.885 200.448, 294.667 201.667 M 336 202 C 337.958 203.266, 339.282 203.266, 338.500 202 C 338.160 201.450, 337.121 201.007, 336.191 201.015 C 334.734 201.029, 334.707 201.165, 336 202 M 390.347 208.831 C 391.259 209.838, 391.755 210.912, 391.450 211.217 C 390.830 211.837, 395.779 216, 397.135 216 C 397.611 216, 398 215.523, 398 214.941 C 398 214.359, 397.597 214.131, 397.104 214.436 C 396.611 214.740, 395.149 214.107, 393.854 213.028 C 392.559 211.949, 392.036 211.052, 392.691 211.033 C 393.346 211.015, 394.160 211.450, 394.500 212 C 394.840 212.550, 395.603 213, 396.197 213 C 396.790 213, 395.576 211.650, 393.500 210 C 389.234 206.610, 387.884 206.109, 390.347 208.831 M 134.571 209.571 C 132.286 211.857, 132.643 212.633, 135 210.500 C 136.100 209.505, 137 208.535, 137 208.345 C 137 207.602, 136.073 208.070, 134.571 209.571 M 375 208.383 C 375 208.594, 375.901 209.002, 377.001 209.290 C 378.102 209.578, 378.751 209.405, 378.442 208.907 C 377.904 208.036, 375 207.594, 375 208.383 M 361.226 210.574 C 362.176 211.568, 363.227 212.107, 363.562 211.771 C 363.897 211.436, 363.120 210.623, 361.836 209.964 C 359.603 208.819, 359.576 208.846, 361.226 210.574 M 189.714 211.302 C 188.444 214.613, 196.623 225, 200.501 225 C 202.956 225, 209.148 218.045, 208.808 215.669 C 208.448 213.157, 205 212.032, 205 214.427 C 205 216.627, 201.390 220, 199.035 220 C 196.669 220, 194.678 216.622, 194.787 212.792 C 194.852 210.513, 194.439 210, 192.540 210 C 191.261 210, 189.989 210.586, 189.714 211.302 M 317.571 211.571 C 316.707 212.436, 316 214.146, 316 215.371 C 316 221.852, 308.032 221.372, 305.683 214.750 C 304.839 212.368, 303.278 212.547, 302.462 215.120 C 301.623 217.764, 304.679 222.135, 308.259 223.410 C 313.486 225.273, 320.238 220.059, 321.633 213.084 C 322.111 210.697, 321.899 210, 320.696 210 C 319.842 210, 318.436 210.707, 317.571 211.571 M 94.103 219.230 C 91.685 220.402, 87.273 223.642, 84.299 226.430 C 80.009 230.452, 78.386 232.904, 76.446 238.295 C 75.101 242.033, 74 246.706, 74 248.680 L 74 252.270 76.161 249.385 C 80.426 243.691, 89.630 234.725, 96.770 229.308 C 100.769 226.274, 104.534 222.872, 105.136 221.747 C 106.160 219.832, 106.015 219.740, 102.865 220.312 C 101.014 220.647, 98.375 221.198, 97 221.535 C 94.793 222.077, 94.695 221.993, 96.163 220.824 C 97.078 220.096, 98.653 218.964, 99.663 218.309 C 102.862 216.234, 98.948 216.883, 94.103 219.230 M 414.250 219.055 C 416.313 220.151, 418 221.487, 418 222.024 C 418 223.385, 417.458 223.274, 413 221 C 409.379 219.153, 406 218.397, 406 219.435 C 406 221.740, 408.679 225.480, 412.113 227.967 C 414.416 229.635, 415.997 231, 415.627 231 C 414.198 231, 418.280 235.923, 423.028 239.926 C 429.706 245.557, 429.329 243.715, 422.339 236.556 C 419.226 233.367, 417.724 231.317, 419.002 232.001 C 421.671 233.429, 431.100 242.617, 435.935 248.500 L 439.222 252.500 438.601 248.260 C 438.259 245.929, 437.023 241.465, 435.855 238.342 C 432.438 229.210, 421.692 219.053, 414 217.685 L 410.500 217.063 414.250 219.055 M 343.195 219.940 C 344.546 222.104, 346 222.672, 346 221.035 C 346 220.505, 345.079 219.578, 343.954 218.976 C 342.065 217.964, 342.007 218.038, 343.195 219.940 M 136.872 220.750 C 135.680 222.271, 135.697 222.354, 137 221.384 C 137.825 220.771, 139.175 220.019, 140 219.713 C 141.255 219.249, 141.234 219.145, 139.872 219.079 C 138.977 219.036, 137.627 219.787, 136.872 220.750 M 371 220.125 C 371 221.237, 373.512 222.334, 374.934 221.844 C 375.484 221.655, 374.824 220.980, 373.467 220.344 C 372.088 219.698, 371 219.601, 371 220.125 M 338.882 225.250 C 338.816 226.488, 338.842 227.914, 338.938 228.419 C 339.034 228.925, 338.402 228.748, 337.532 228.027 C 335.297 226.172, 334.400 227.572, 335.669 230.935 C 336.635 233.492, 336.498 233.908, 334.374 234.875 C 333.068 235.470, 332 236.690, 332 237.586 C 332 238.622, 331.455 239.005, 330.500 238.638 C 329.480 238.247, 329 238.692, 329 240.031 C 329 241.114, 328.550 242, 328 242 C 327.450 242, 327 243.350, 327 245 C 327 248.407, 326.517 248.660, 324.283 246.426 C 323.005 245.148, 322.551 245.101, 321.870 246.176 C 320.517 248.310, 320.875 249.348, 322.500 248 C 323.731 246.979, 324 247.053, 324 248.413 C 324 249.324, 324.771 251.247, 325.713 252.685 C 326.656 254.124, 327.508 255.795, 327.608 256.400 C 328.082 259.271, 328.710 260.453, 331.438 263.610 C 333.393 265.871, 334.618 266.619, 335.097 265.843 C 335.543 265.122, 335.968 265.598, 336.209 267.088 C 336.486 268.793, 336.972 267.818, 337.868 263.764 C 338.565 260.610, 338.823 257.522, 338.440 256.903 C 338.057 256.283, 338.207 255.489, 338.773 255.138 C 341.006 253.754, 342.011 240.854, 339.941 240.153 C 339.275 239.927, 339.322 239.316, 340.076 238.408 C 340.714 237.639, 340.987 236.060, 340.684 234.898 C 340.380 233.736, 340.577 231.614, 341.121 230.182 C 342.210 227.316, 341.525 223, 339.981 223 C 339.441 223, 338.947 224.012, 338.882 225.250 M 368.244 223.664 C 366.861 224.222, 367.527 226, 369.118 226 C 369.668 226, 369.864 225.588, 369.553 225.085 C 369.242 224.582, 369.553 223.943, 370.244 223.664 C 370.935 223.386, 371.050 223.158, 370.500 223.158 C 369.950 223.158, 368.935 223.386, 368.244 223.664 M 169 224.941 C 169 225.459, 169.386 226.121, 169.859 226.413 C 170.722 226.947, 170.552 242.634, 169.639 246.662 C 169.340 247.983, 169.856 249.465, 170.966 250.469 C 172.030 251.432, 172.573 252.919, 172.275 254.057 C 171.995 255.126, 172.217 256, 172.768 256 C 173.319 256, 174.115 258.587, 174.538 261.750 C 175.139 266.251, 175.447 266.957, 175.955 265 C 176.582 262.582, 176.642 262.566, 177.772 264.500 C 178.414 265.600, 178.953 265.935, 178.970 265.243 C 178.986 264.552, 180.138 262.998, 181.528 261.788 C 182.919 260.579, 183.833 259.008, 183.561 258.297 C 183 256.837, 186.724 250, 188.079 250 C 188.564 250, 188.804 251.350, 188.612 253 C 188.362 255.148, 188.686 256, 189.754 256 C 190.966 256, 191.012 256.281, 190 257.500 C 189.183 258.485, 189.129 259, 189.843 259 C 190.442 259, 191.233 261.279, 191.603 264.065 C 192.269 269.083, 192.290 269.108, 193.887 266.787 C 194.774 265.498, 196.269 263.556, 197.208 262.472 C 200.749 258.384, 205 252.700, 205 252.054 C 205 251.684, 204.339 250.509, 203.532 249.441 C 202.181 247.655, 202.061 247.642, 202.032 249.281 C 202.014 250.261, 201.325 251.322, 200.500 251.638 C 199.675 251.955, 199 252.814, 199 253.548 C 199 254.282, 198.557 255.156, 198.015 255.491 C 197.400 255.871, 197.271 254.897, 197.671 252.894 C 198.130 250.598, 197.984 249.892, 197.156 250.404 C 196.520 250.797, 196 251.691, 196 252.392 C 196 253.093, 195.325 253.667, 194.500 253.667 C 192.739 253.667, 192.606 252.604, 194.035 249.934 C 194.605 248.870, 194.673 248, 194.188 248 C 193.703 248, 192.817 249.012, 192.220 250.250 C 191.209 252.347, 191.126 252.262, 190.997 249 C 190.883 246.108, 190.710 245.847, 190 247.500 C 189.205 249.350, 189.135 249.317, 189.070 247.059 C 189.002 244.682, 188.959 244.669, 187.434 246.559 C 185.932 248.422, 185.886 248.390, 186.296 245.750 C 186.727 242.974, 185.597 241.939, 184.659 244.250 C 183.650 246.737, 182.111 242.837, 183.088 240.268 C 184.292 237.103, 184.294 237.110, 182.109 237.682 C 181.010 237.969, 179.142 237.241, 177.651 235.944 C 175.603 234.164, 175.287 233.333, 176.088 231.835 C 177.280 229.608, 176.352 227.651, 174.450 228.381 C 173.579 228.715, 173.300 228.381, 173.662 227.438 C 174.057 226.409, 173.746 226.160, 172.611 226.596 C 171.542 227.006, 171 226.674, 171 225.607 C 171 224.723, 170.550 224, 170 224 C 169.450 224, 169 224.423, 169 224.941 M 354 228.559 C 354 229.416, 354.457 229.835, 355.016 229.490 C 355.575 229.144, 355.774 228.443, 355.457 227.931 C 354.600 226.544, 354 226.802, 354 228.559 M 91 235.377 C 83.420 242.671, 82.157 244.706, 88.676 239.121 C 92.072 236.210, 95.096 233.193, 95.394 232.415 C 96.148 230.450, 96.054 230.513, 91 235.377 M 367 235.382 C 367 236.207, 367.450 237.160, 368 237.500 C 368.550 237.840, 369 237.443, 369 236.618 C 369 235.793, 368.550 234.840, 368 234.500 C 367.450 234.160, 367 234.557, 367 235.382 M 142.097 236.383 C 141.222 237.438, 141.263 237.887, 142.270 238.273 C 143.055 238.575, 143.649 238.014, 143.733 236.890 C 143.903 234.636, 143.620 234.548, 142.097 236.383 M 105.015 245.485 C 103.157 247.402, 101.831 249.163, 102.068 249.400 C 102.550 249.880, 106.755 246.368, 108.872 243.718 C 111.363 240.601, 108.459 241.931, 105.015 245.485 M 87.262 250.501 C 75.610 261.046, 70.575 270.148, 69.470 282.664 L 68.867 289.500 71.150 286.500 C 76.115 279.978, 80.204 277, 84.195 277 C 86.288 277, 87.989 277.337, 87.975 277.750 C 87.961 278.163, 85.692 281.200, 82.934 284.500 C 76.088 292.689, 72.154 300.995, 71.332 308.994 L 70.664 315.487 76.019 310.672 C 78.965 308.024, 82.671 305.187, 84.255 304.368 C 86.990 302.954, 87.084 302.974, 86.122 304.772 C 85.565 305.813, 84.372 307.277, 83.470 308.025 C 76.970 313.420, 71.993 326.321, 72.015 337.718 C 72.035 347.667, 73.531 350.437, 74.223 341.808 C 74.804 334.572, 78.473 326.347, 82.550 323.139 C 86.258 320.223, 95.385 317, 99.938 317 L 103.801 317 97.863 322.750 C 94.214 326.283, 91.393 330.042, 90.546 332.500 C 89.004 336.973, 90.019 338.198, 93.017 335.484 C 94.063 334.538, 97.027 333.526, 99.604 333.235 C 104.138 332.724, 104.271 332.785, 103.731 335.104 C 100.594 348.581, 99.873 353.480, 100.537 356.794 L 101.280 360.500 102.973 355 C 105.137 347.972, 107.216 344.007, 110.055 341.498 C 112.313 339.501, 112.314 339.501, 111.744 341.500 C 111.431 342.600, 110.188 346.200, 108.981 349.500 C 106.335 356.735, 106.583 367.213, 109.547 373.458 L 111.425 377.415 112.462 373.277 C 113.033 371.001, 113.786 368.859, 114.136 368.516 C 114.487 368.174, 115.719 370.955, 116.876 374.697 C 120.068 385.020, 120.967 385.658, 120.985 377.616 C 121.002 369.653, 122.519 363.745, 125.160 361.356 C 127.801 358.965, 128.023 359.780, 126.418 365.969 C 123.415 377.544, 125.811 392.317, 132.126 401.171 L 134.500 404.500 135.041 399.792 C 135.776 393.400, 136.620 392.978, 137.460 398.582 C 138.441 405.122, 138.911 406, 141.433 406 C 144.578 406, 147.623 402.342, 150.421 395.202 C 153.676 386.896, 156.128 383.697, 160.883 381.553 C 164.776 379.797, 165.111 379.315, 168.717 370.250 C 169.561 368.128, 166.536 368.850, 159.370 372.481 C 155.592 374.396, 152.162 375.971, 151.750 375.981 C 150.026 376.024, 151.262 371.741, 155.382 363.386 C 160.389 353.234, 161.546 350, 160.171 350 C 157.649 350, 149 362.744, 149 366.460 C 149 367.307, 148.570 368, 148.045 368 C 147.096 368, 146.529 365.449, 145.635 357.167 C 145.378 354.784, 144.949 352.616, 144.681 352.348 C 144.413 352.080, 142.368 352.792, 140.137 353.930 C 137.905 355.069, 135.724 355.977, 135.290 355.949 C 133.739 355.850, 151.563 347.237, 154.750 346.546 C 158.473 345.738, 159.129 344, 155.710 344 C 152.166 344, 141.916 346.869, 137.750 349.026 C 133.388 351.285, 133.233 350.993, 136.206 346.118 C 137.864 343.399, 137.989 342.841, 136.706 343.872 C 134.583 345.581, 134.549 344.772, 136.581 340.843 C 138.388 337.349, 137.741 333, 135.415 333 C 133.239 333, 130.179 334.715, 125.250 338.699 L 121 342.134 121.004 339.317 C 121.008 336.203, 123.501 331.666, 128.684 325.341 C 130.560 323.051, 131.737 320.987, 131.298 320.754 C 129.641 319.877, 110.315 321.841, 106.981 323.226 C 105.067 324.022, 102.150 325.008, 100.500 325.418 L 97.500 326.163 100 323.482 C 101.375 322.007, 105.763 318.539, 109.750 315.775 C 113.737 313.012, 117 310.373, 117 309.913 C 117 309.452, 112.838 308.924, 107.750 308.738 C 101.224 308.501, 99.191 308.153, 100.846 307.559 C 106.969 305.360, 119.801 298.575, 122.369 296.178 L 125.238 293.500 124.492 296 C 124.082 297.375, 123.117 299.738, 122.348 301.250 C 120.970 303.959, 120.995 304, 124.040 304 C 125.740 304, 128.070 303.498, 129.217 302.884 C 130.981 301.940, 131.203 302.017, 130.652 303.384 C 130.293 304.273, 129.699 305.747, 129.331 306.661 C 128.784 308.021, 129.100 308.205, 131.081 307.674 C 132.412 307.318, 134.850 306.976, 136.500 306.914 C 139.401 306.804, 139.417 306.777, 137 306.096 C 134.527 305.398, 134.537 305.377, 137.865 304.207 C 139.716 303.556, 141.517 303.202, 141.869 303.419 C 143.187 304.233, 142.441 297.454, 141.097 296.402 C 140.288 295.768, 140.025 294.769, 140.475 294.040 C 140.909 293.338, 140.744 292.460, 140.105 292.065 C 139.471 291.673, 138.762 290.362, 138.529 289.150 C 138.295 287.938, 138.423 287.144, 138.813 287.385 C 139.203 287.626, 140.391 287.188, 141.452 286.411 C 143.262 285.088, 143.184 285, 140.191 285 C 138.436 285, 137 284.550, 137 284 C 137 283.450, 136.325 283, 135.500 283 C 134.667 283, 134 282.111, 134 281 C 134 279.900, 133.520 279, 132.933 279 C 132.320 279, 132.136 279.853, 132.500 281 C 133.028 282.663, 132.660 283.019, 130.317 283.115 C 126.849 283.257, 126.631 283.299, 120.685 284.941 C 115.873 286.269, 115.507 287.534, 119.752 288.165 C 121.430 288.415, 119.173 290.028, 110.890 294.500 C 104.777 297.800, 97.782 302.243, 95.344 304.373 C 92.907 306.503, 90.720 308.054, 90.485 307.818 C 89.563 306.897, 95.920 295.339, 98.874 292.563 C 100.593 290.948, 102 289.260, 102 288.813 C 102 287.646, 97.237 287.808, 96.500 289 C 96.160 289.550, 95.456 290, 94.935 290 C 93.350 290, 99.847 281.681, 103.721 278.750 C 105.721 277.238, 108.514 275.939, 109.928 275.864 C 112.362 275.735, 112.376 275.704, 110.192 275.287 C 108.324 274.930, 108.109 274.574, 109.064 273.423 C 110.006 272.288, 109.904 272, 108.563 272 C 107.639 272, 107.160 271.550, 107.500 271 C 108.425 269.503, 101.153 269.852, 96.500 271.529 C 91.441 273.352, 90.857 273.322, 94 271.402 C 96.370 269.954, 96.383 269.899, 94.250 270.344 C 89.149 271.407, 93.685 265.597, 100.461 262.388 C 103.357 261.017, 106.997 258.569, 108.550 256.948 C 111.525 253.842, 110.957 252.824, 107.829 255.655 C 106.374 256.971, 105.997 257.022, 105.985 255.905 C 105.972 254.762, 105.789 254.780, 105 256 C 104.354 257, 104.026 257.083, 104.015 256.250 C 103.991 254.253, 102.444 254.783, 99.055 257.949 C 96.566 260.274, 96.028 260.486, 96.516 258.949 C 97.316 256.428, 95.805 256.453, 93.500 259 C 90.378 262.450, 89.883 261.190, 92.421 256.250 C 95.124 250.988, 96.071 245.867, 94.442 245.318 C 93.860 245.122, 90.629 247.454, 87.262 250.501 M 416.733 246.914 C 416.446 248.009, 417.724 251.516, 419.724 255.125 C 423.212 261.417, 422.921 261.593, 417.250 256.623 C 414.606 254.306, 414.350 255.078, 416.615 258.535 C 417.518 259.913, 417.764 261, 417.174 261 C 416.593 261, 415.855 260.574, 415.533 260.053 C 415.211 259.532, 413.047 257.826, 410.724 256.261 C 403.636 251.487, 403.712 251.516, 404.461 253.876 C 405.083 255.836, 404.923 255.921, 402.419 254.969 C 400.033 254.062, 399.857 254.123, 400.974 255.468 C 401.673 256.311, 401.795 257, 401.245 257 C 400.695 257, 399.685 256.325, 399 255.500 C 396.971 253.056, 396.010 253.790, 397.494 256.650 C 399.345 260.218, 401.137 261.195, 402.476 259.364 C 403.425 258.066, 403.908 258.140, 406.191 259.936 C 407.635 261.071, 409.446 262, 410.217 262 C 410.988 262, 414.067 264.280, 417.060 267.066 C 420.052 269.852, 421.857 271.800, 421.070 271.396 C 418.691 270.171, 405.466 270.209, 402.433 271.449 L 399.594 272.610 409.203 280.338 C 419.919 288.958, 421.445 291, 417.169 291 C 415.646 291, 413.868 290.467, 413.217 289.817 C 410.464 287.064, 411.247 290.036, 414.343 294.093 C 417.726 298.526, 422.415 306.932, 421.820 307.497 C 421.644 307.664, 418.125 305.592, 414 302.893 C 409.875 300.193, 401.663 295.230, 395.750 291.863 C 389.837 288.497, 385 285.529, 385 285.267 C 385 284.525, 393.179 285.722, 396.315 286.922 C 397.863 287.515, 399.381 288, 399.688 288 C 400.856 288, 397.628 284.934, 394.286 282.868 C 391.497 281.144, 390.632 280.978, 389.974 282.041 C 389.325 283.092, 388.845 283.116, 387.688 282.156 C 386.637 281.283, 385.061 281.201, 382.111 281.864 C 379.850 282.372, 378 282.555, 378 282.271 C 378 281.987, 377.438 282.208, 376.750 282.762 C 376.063 283.316, 373.925 284.118, 372 284.545 L 368.500 285.320 371.750 286.189 C 373.538 286.666, 374.998 287.382, 374.995 287.779 C 374.993 288.175, 373.667 289.912, 372.050 291.638 C 370.432 293.363, 369.384 295.051, 369.721 295.388 C 370.058 295.724, 369.583 296, 368.667 296 C 367.750 296, 367 296.389, 367 296.864 C 367 298.246, 372.141 303, 373.636 303 C 374.386 303, 375.856 303.856, 376.901 304.901 C 379.012 307.012, 383.658 308.874, 382.619 307.193 C 382.272 306.631, 382.553 305.981, 383.244 305.748 C 384.228 305.417, 384.203 304.965, 383.128 303.663 C 381.460 301.642, 382.634 301.576, 386 303.500 C 388.347 304.842, 393 305.541, 393 304.552 C 393 304.305, 391.988 303.006, 390.750 301.666 C 389.512 300.326, 387.978 297.831, 387.339 296.121 L 386.178 293.012 390.339 296.382 C 395.396 300.477, 399.529 302.648, 407.809 305.559 L 414.117 307.777 405.743 308.966 C 401.137 309.619, 396.866 310.465, 396.253 310.844 C 395.615 311.238, 399.208 314.026, 404.646 317.356 C 409.876 320.558, 413.962 323.371, 413.727 323.607 C 413.491 323.842, 410.052 323.352, 406.084 322.518 C 402.116 321.683, 396.663 321, 393.966 321 C 389.727 321, 389.147 321.237, 389.682 322.750 C 390.048 323.787, 388.814 323.096, 386.650 321.054 C 382.405 317.046, 381.736 318.676, 385.408 324.079 C 386.732 326.028, 388.517 329.302, 389.375 331.356 L 390.936 335.090 387.896 332.926 C 384.900 330.793, 384.795 330.787, 380.678 332.565 C 374.541 335.214, 374.399 335.633, 379.104 337.201 C 384.057 338.852, 388.633 343.916, 389.617 348.834 C 390.257 352.036, 390.175 352.148, 387.391 351.830 C 385.026 351.560, 383.450 349.958, 378.733 343.030 C 375.562 338.372, 372.292 334.183, 371.467 333.722 C 369.574 332.662, 361.647 333.807, 359.375 335.468 C 357.886 336.556, 358.300 336.818, 362.511 337.449 C 367.859 338.251, 370.799 340.764, 374.809 347.958 L 377.118 352.101 373.309 350.163 C 369.993 348.475, 356.437 344, 354.642 344 C 353.230 344, 354.237 345.825, 359.541 352.876 C 366.152 361.663, 368.596 366.234, 369.523 371.547 C 370.189 375.355, 370.102 375.281, 367.152 369.500 C 363.743 362.819, 352.105 349.460, 350.246 350.093 C 349.407 350.379, 349.978 353.035, 352.158 359 C 353.999 364.037, 355.530 370.555, 355.915 375 C 356.479 381.518, 357.317 383.954, 362.312 393.603 C 366.192 401.097, 368.852 405.067, 370.495 405.816 C 373.609 407.235, 373.990 406.579, 374.914 398.205 C 375.612 391.872, 375.719 391.656, 376.827 394.315 C 377.472 395.863, 378 398.676, 378 400.565 C 378 405.008, 379.124 404.913, 381.717 400.250 C 387.413 390.007, 389.324 376.540, 386.582 365.969 C 385.034 360.001, 385.188 359.081, 387.425 360.937 C 389.620 362.759, 391.036 367.931, 391.878 377.204 L 392.632 385.500 395.548 376.237 C 398.508 366.837, 399.746 366.208, 399.952 374 L 400.044 377.500 401.922 375.058 C 404.609 371.561, 406 366.172, 406 359.254 C 406 354.431, 405.341 351.931, 402.668 346.620 C 400.835 342.979, 399.732 340, 400.216 340 C 402.100 340, 406.039 345.494, 408.005 350.865 C 409.140 353.964, 410.384 357.175, 410.770 358 C 412.170 360.992, 412.052 347.053, 410.626 340.881 C 409.821 337.396, 409.378 334.198, 409.640 333.773 C 410.582 332.249, 416.779 333.039, 419.273 335 C 422.680 337.680, 423.015 337.540, 421.965 333.877 C 420.761 329.681, 419.046 327.207, 413.128 321.131 C 410.379 318.309, 408.528 316, 409.016 316 C 409.503 316, 412.286 316.505, 415.201 317.123 C 428.173 319.873, 434.592 326.583, 437.441 340.369 L 438.708 346.500 439.406 342.459 C 440.195 337.901, 438.768 327.428, 436.473 320.923 C 434.460 315.219, 429.989 308.343, 425.468 304 C 420.204 298.943, 415.910 289.972, 419.948 292.468 C 420.542 292.835, 421.882 294.793, 422.925 296.818 C 425.025 300.896, 441.208 315.876, 441.751 314.246 C 442.443 312.171, 438.945 299.837, 436.081 294.250 C 434.459 291.087, 431.078 286.028, 428.566 283.007 C 426.055 279.986, 424.001 277.286, 424.002 277.007 C 424.004 276.728, 425.466 276.436, 427.252 276.358 C 431.092 276.190, 435.519 279.205, 439.053 284.394 C 440.399 286.370, 441.903 287.989, 442.395 287.993 C 444.329 288.008, 442.111 273.835, 439.210 267.636 C 435.880 260.520, 427.067 250.524, 421.238 247.251 C 417.370 245.080, 417.215 245.069, 416.733 246.914 M 309.245 250.500 C 309.741 253.095, 308.613 253.938, 307.572 251.750 C 307.245 251.063, 307.189 251.602, 307.447 252.948 C 307.705 254.294, 307.430 255.982, 306.836 256.698 C 306.028 257.671, 306.144 258, 307.294 258 C 308.141 258, 309.060 258.563, 309.338 259.250 C 309.741 260.250, 309.858 260.250, 309.921 259.250 C 309.964 258.563, 310.727 258, 311.617 258 C 312.741 258, 313.074 258.609, 312.710 260.001 C 312.422 261.102, 312.556 261.774, 313.008 261.495 C 313.460 261.216, 313.980 261.344, 314.165 261.780 C 314.349 262.216, 316.001 263.627, 317.836 264.915 L 321.172 267.258 320.989 263.379 C 320.672 256.661, 320.712 256.582, 323.500 258.408 C 324.875 259.309, 326 259.630, 326 259.122 C 326 258.613, 324.425 257.268, 322.500 256.133 C 320.575 254.997, 319 253.351, 319 252.475 C 319 251.599, 319.450 251.160, 320 251.500 C 320.550 251.840, 321 251.668, 321 251.118 C 321 248.842, 318.925 249.066, 318.023 251.440 C 316.831 254.575, 315.207 254.733, 314.129 251.819 C 313.386 249.810, 313.272 249.889, 312.686 252.819 C 312.110 255.700, 310 257.413, 310 255 C 310 254.450, 310.466 254, 311.035 254 C 311.697 254, 311.746 253.369, 311.170 252.250 C 310.675 251.287, 310.472 249.938, 310.718 249.250 C 310.965 248.563, 310.627 248, 309.967 248 C 309.226 248, 308.950 248.957, 309.245 250.500 M 201.241 252.986 C 200.558 254.079, 200 255.231, 200 255.545 C 200 256.606, 201.980 254.905, 203.030 252.944 C 204.399 250.387, 202.841 250.423, 201.241 252.986 M 320.500 254 C 320.840 254.550, 321.568 255, 322.118 255 C 322.668 255, 322.840 254.550, 322.500 254 C 322.160 253.450, 321.432 253, 320.882 253 C 320.332 253, 320.160 253.450, 320.500 254 M 109.937 257.980 C 108.047 259.596, 107.037 260.937, 107.694 260.959 C 109.237 261.012, 114.677 256.347, 113.937 255.606 C 113.628 255.295, 111.828 256.364, 109.937 257.980 M 394.564 256.293 C 394.940 257.279, 395.499 257.834, 395.807 257.526 C 396.115 257.219, 395.808 256.412, 395.124 255.733 C 394.136 254.753, 394.022 254.868, 394.564 256.293 M 203.825 258.326 C 203.452 260.151, 203.592 260.808, 204.218 260.182 C 204.751 259.649, 205.011 258.377, 204.794 257.356 C 204.503 255.981, 204.251 256.233, 203.825 258.326 M 314 259.941 C 314 260.459, 314.445 261.157, 314.989 261.493 C 315.555 261.843, 315.723 261.442, 315.382 260.552 C 314.717 258.820, 314 258.503, 314 259.941 M 403 260 C 403 260.550, 403.477 261, 404.059 261 C 404.641 261, 404.840 260.550, 404.500 260 C 404.160 259.450, 403.684 259, 403.441 259 C 403.198 259, 403 259.450, 403 260 M 414 268 C 415.375 269.076, 416.950 269.956, 417.500 269.956 C 418.050 269.956, 417.375 269.076, 416 268 C 414.625 266.924, 413.050 266.044, 412.500 266.044 C 411.950 266.044, 412.625 266.924, 414 268 M 123 281 C 124.958 282.266, 126.282 282.266, 125.500 281 C 125.160 280.450, 124.121 280.007, 123.191 280.015 C 121.734 280.029, 121.707 280.165, 123 281 M 90.058 297.137 C 88.084 300.375, 87.536 302, 88.418 302 C 89.262 302, 93.211 294.877, 92.668 294.335 C 92.360 294.027, 91.185 295.288, 90.058 297.137 M 141.813 295.683 C 142.534 295.972, 143.397 295.936, 143.729 295.604 C 144.061 295.272, 143.471 295.036, 142.417 295.079 C 141.252 295.127, 141.015 295.364, 141.813 295.683 M 150 298 C 148.707 298.835, 148.734 298.971, 150.191 298.985 C 151.121 298.993, 152.160 298.550, 152.500 298 C 153.282 296.734, 151.958 296.734, 150 298 M 358 300.361 C 358 301.068, 374.045 306.024, 376.052 305.937 C 378.166 305.844, 373.344 303.993, 367 302.462 C 363.975 301.732, 360.712 300.831, 359.750 300.460 C 358.788 300.089, 358 300.045, 358 300.361 M 159.167 309.667 C 157.896 311.605, 157.063 313.396, 157.314 313.648 C 157.566 313.899, 158.775 312.483, 160 310.500 C 162.903 305.803, 162.176 305.076, 159.167 309.667 M 348 307.646 C 348 308.185, 349.462 309.948, 351.250 311.563 L 354.500 314.500 351.500 311.005 C 349.850 309.083, 348.387 307.320, 348.250 307.088 C 348.113 306.856, 348 307.107, 348 307.646 M 177 309.495 C 177 309.844, 178.238 311.171, 179.750 312.444 C 182.321 314.609, 187.765 323, 186.599 323 C 186.308 323, 184.479 321.603, 182.535 319.896 C 178.415 316.279, 178.367 316.358, 180.987 322.471 C 182.081 325.021, 183.134 330.081, 183.328 333.716 C 183.624 339.244, 184.075 340.646, 186.091 342.295 L 188.500 344.266 186 343.481 C 181.137 341.955, 173.483 340.024, 172.250 340.012 C 171.563 340.005, 171 340.450, 171 341 C 171 341.550, 171.706 342, 172.570 342 C 174.974 342, 188.707 347.942, 190.054 349.565 C 191.540 351.356, 191.246 351.351, 186 349.500 C 183.662 348.675, 179.668 348.053, 177.124 348.119 L 172.500 348.238 177.556 349.164 C 183.215 350.201, 195.139 355.825, 195.762 357.750 C 196.035 358.594, 194.991 359, 192.543 359 C 189.494 359, 181 362.239, 181 363.402 C 181 363.601, 182.688 363.162, 184.750 362.426 C 192.112 359.799, 196.240 360.843, 199.019 366.035 C 199.881 367.647, 199.419 368.202, 195.762 369.944 C 193.418 371.061, 192.625 371.670, 194 371.297 C 199.252 369.873, 201.376 370.370, 202.408 373.262 C 203.289 375.728, 203.024 376.357, 199.947 379.114 C 196.651 382.067, 196.632 382.124, 199.500 380.407 C 201.150 379.419, 203.738 377.990, 205.250 377.232 L 208 375.854 207.979 362.177 C 207.959 349.150, 205.594 314.260, 204.667 313.334 C 204.426 313.093, 203.266 314.885, 202.089 317.316 C 200.912 319.747, 199.065 322.536, 197.985 323.514 C 196.081 325.237, 195.868 325.156, 191.119 320.896 C 183.388 313.961, 177 308.803, 177 309.495 M 325 316 C 319.266 319.972, 315.493 321.907, 313.405 321.944 C 311.703 321.975, 309.623 322.788, 308.783 323.750 C 306.444 326.430, 305.137 336.628, 304.441 357.608 C 303.844 375.620, 303.914 376.749, 305.654 377.279 C 306.669 377.589, 309.525 379.035, 312 380.494 C 316.532 383.165, 315.139 381.453, 309.349 377.236 C 307.090 375.590, 306.970 375.159, 308.087 372.709 C 309.501 369.605, 310.814 369.389, 315.300 371.523 C 318.657 373.120, 318.683 373.147, 312.556 368.665 C 310.673 367.288, 310.668 367.156, 312.404 364.506 C 314.061 361.977, 314.590 361.806, 319.349 362.254 C 322.182 362.521, 325.400 363.078, 326.500 363.493 C 328.360 364.193, 328.352 364.135, 326.380 362.657 C 325.214 361.783, 322.366 360.643, 320.052 360.123 C 317.738 359.603, 315.619 358.952, 315.344 358.677 C 314.649 357.983, 323.069 353.155, 329.616 350.494 C 338.939 346.705, 337.963 345.590, 328.296 348.987 C 325.186 350.080, 322.445 350.778, 322.205 350.539 C 321.379 349.712, 330.976 344.267, 335.484 343.005 C 337.968 342.309, 340 341.349, 340 340.870 C 340 339.731, 339.438 339.774, 333.466 341.364 L 328.432 342.705 329.274 336.103 C 329.737 332.471, 330.783 326.855, 331.598 323.623 C 332.412 320.390, 332.905 317.572, 332.692 317.359 C 332.479 317.146, 331.153 317.878, 329.745 318.986 C 326.636 321.431, 326 321.492, 326 319.346 C 326 318.437, 327.875 315.962, 330.166 313.846 C 332.458 311.731, 334.145 310.025, 333.916 310.056 C 333.687 310.086, 329.675 312.761, 325 316 M 238.188 319.828 C 235.365 320.228, 231.782 325.665, 232.322 328.729 C 232.589 330.243, 231.963 331.450, 230.370 332.493 C 227.471 334.393, 224.260 340.522, 223.423 345.753 C 221.320 358.910, 232.847 376, 243.825 376 C 245.423 376, 247.916 375.067, 249.365 373.927 L 252 371.855 252 374.392 C 252 375.969, 251.182 377.367, 249.841 378.085 C 247.116 379.543, 238.586 378.614, 235.374 376.509 C 231.249 373.807, 232.405 378.013, 237.027 382.527 C 240.615 386.030, 241.788 386.544, 247.777 387.238 C 266.273 389.382, 275.559 386.551, 278.906 377.748 C 279.480 376.237, 279.794 375, 279.602 375 C 279.411 375, 277.160 375.926, 274.600 377.059 C 269.132 379.477, 262.683 379.378, 262.208 376.867 C 261.949 375.500, 262.612 375.315, 266.284 375.728 C 271.873 376.358, 275.409 374.564, 281.141 368.188 C 290.792 357.454, 291.542 339.383, 282.634 332.254 C 281.429 331.289, 280.596 329.739, 280.783 328.809 C 281.213 326.678, 278.378 322.277, 275.608 320.776 C 273.667 319.724, 244.191 318.977, 238.188 319.828 M 174 328.313 C 174 328.485, 175.463 329.948, 177.250 331.563 L 180.500 334.500 177.563 331.250 C 174.825 328.221, 174 327.540, 174 328.313 M 253 347.525 C 253 348.665, 258.278 349.968, 260.569 349.393 C 264.706 348.355, 263.252 347, 258 347 C 255.250 347, 253 347.236, 253 347.525 M 233.229 353.171 C 231.804 354.596, 231.630 358.868, 232.914 360.896 C 234.498 363.397, 237 361.338, 237 357.531 C 237 355.589, 237.024 353.663, 237.053 353.250 C 237.145 351.945, 234.509 351.891, 233.229 353.171 M 366.097 354.620 C 367.525 356.204, 369.437 358.613, 370.347 359.973 C 372.663 363.437, 372.412 361.188, 370.050 357.314 C 368.981 355.561, 367.070 353.591, 365.804 352.934 C 363.592 351.789, 363.604 351.856, 366.097 354.620 M 273.131 360.342 C 272.041 361.656, 272.546 363, 274.131 363 C 274.570 363, 275.411 362.100, 276 361 C 276.836 359.439, 276.760 359, 275.658 359 C 274.881 359, 273.744 359.604, 273.131 360.342 M 340 374.776 C 340 375.343, 341.862 379.689, 344.138 384.432 C 346.414 389.176, 348.032 393.301, 347.733 393.600 C 347.434 393.899, 343.997 391.132, 340.095 387.451 C 332.009 379.823, 331.409 380.342, 335.013 391.839 C 337.623 400.166, 337.620 402.332, 335 401.500 C 333.900 401.151, 333 401.070, 333 401.320 C 333 401.571, 334.462 404.863, 336.250 408.638 C 339.406 415.302, 339.500 415.881, 339.500 428.711 C 339.500 439.612, 339.729 441.692, 340.812 440.613 C 342.358 439.071, 347.960 423.399, 348.002 420.500 C 348.026 418.841, 348.196 418.756, 349 420 C 349.533 420.825, 349.976 422.486, 349.985 423.691 C 350.015 428.053, 352.090 427.046, 354.667 421.417 C 360.119 409.508, 358.720 396.646, 350.701 384.958 C 346.530 378.878, 340 372.665, 340 374.776 M 167.511 378.686 C 162.953 383.113, 156.556 392.784, 154.933 397.703 C 154.250 399.774, 153.947 404.449, 154.210 408.881 C 154.898 420.505, 161 432.346, 161 422.059 C 161 416.532, 162.611 416.143, 163.344 421.494 C 163.955 425.948, 168.482 436.995, 171.410 441.175 C 172.859 443.244, 172.927 442.844, 172.371 435.450 C 171.336 421.678, 174.383 411.630, 183.074 400.147 C 185.216 397.316, 186.561 395, 186.061 395 C 185.562 395, 183.050 396.606, 180.478 398.568 C 177.907 400.531, 175.648 401.981, 175.458 401.791 C 174.770 401.104, 177.096 392.733, 179.025 388.951 C 181.993 383.133, 181.429 382.380, 177.060 386.327 C 173.544 389.503, 168.037 393, 166.550 393 C 165.091 393, 166.330 388.960, 169.310 384 C 171.127 380.975, 172.912 377.712, 173.276 376.750 C 174.395 373.789, 171.580 374.735, 167.511 378.686 M 210.416 381.865 C 210.792 382.472, 208.863 384.539, 205.999 386.596 C 201.029 390.167, 199.522 392.670, 204.180 389.618 C 205.474 388.770, 208.472 387.392, 210.841 386.556 C 214.752 385.176, 215.489 385.189, 218.825 386.690 C 221.963 388.102, 222.186 388.400, 220.354 388.728 C 217.345 389.266, 215.215 391.927, 212.885 398.059 L 210.878 403.343 214.785 399.813 C 216.934 397.871, 220.787 395.483, 223.346 394.506 C 225.906 393.528, 227.994 392.452, 227.988 392.114 C 227.981 391.776, 226.518 390.525, 224.738 389.333 C 222.957 388.142, 219.925 386.046, 218 384.676 C 214.067 381.877, 209.341 380.125, 210.416 381.865 M 294.962 384.008 C 291.678 386.862, 291.644 386.956, 294.299 385.825 C 297.460 384.480, 302.338 385.753, 307.250 389.204 C 308.762 390.267, 310 390.726, 310 390.225 C 310 389.149, 300.533 381, 299.283 381 C 298.811 381, 296.866 382.354, 294.962 384.008 M 286.690 390.452 C 285.892 391.251, 284.936 391.602, 284.566 391.233 C 284.197 390.863, 284.149 391.222, 284.461 392.030 C 284.772 392.839, 286.938 394.287, 289.274 395.250 C 291.609 396.212, 294.733 398.125, 296.216 399.500 C 297.699 400.875, 299.156 402, 299.452 402 C 300.558 402, 295.946 391.452, 294.315 390.250 C 292.040 388.575, 288.474 388.669, 286.690 390.452 M 320 393.622 C 320 394.180, 320.727 397.081, 321.615 400.068 C 323.575 406.662, 323.071 418.357, 320.726 420.703 C 319.355 422.074, 319.017 421.956, 317.441 419.551 C 316.361 417.903, 315.712 415.075, 315.756 412.207 C 315.836 406.884, 314.640 404, 312.351 404 C 311.043 404, 310.891 404.785, 311.462 408.592 C 311.840 411.118, 313.016 415.205, 314.075 417.675 C 316.456 423.229, 316.733 434.147, 314.540 435.967 C 313.338 436.964, 312.717 436.587, 311.037 433.839 C 309.913 432.003, 308.272 428.475, 307.389 426 C 306.506 423.525, 305.328 420.262, 304.771 418.750 C 303.694 415.829, 302.077 415.353, 298.934 417.035 C 296.762 418.198, 296.357 420.619, 298.230 421.243 C 299.033 421.511, 297.932 424, 295.065 428.400 C 290.855 434.861, 284.103 450.648, 284.033 454.191 C 283.981 456.846, 285.558 457.146, 287.615 454.873 C 288.651 453.729, 292.423 447.131, 295.999 440.212 C 299.574 433.292, 302.971 427.482, 303.547 427.300 C 304.123 427.118, 305.473 429.338, 306.547 432.234 C 308.646 437.894, 309.148 450.089, 307.752 461.500 C 307.066 467.111, 307.122 467.370, 308.622 465.500 C 309.504 464.400, 311.096 461.587, 312.159 459.250 C 314.227 454.706, 315.142 453.740, 314.290 457 C 312.181 465.062, 327.235 448.281, 332.576 436.616 C 334.953 431.423, 335.193 429.897, 334.803 422.459 C 334.432 415.405, 333.809 412.999, 330.746 406.812 C 327.504 400.259, 320 391.050, 320 393.622 M 238 394.841 L 234.500 395.534 237 397.213 C 238.375 398.136, 242.200 400.152, 245.500 401.692 C 254.126 405.719, 259.638 405.383, 270.510 400.166 C 279.456 395.873, 281.950 396.140, 274.750 400.619 C 265.177 406.573, 259.164 412.598, 257.523 417.880 C 256.968 419.665, 259.122 418.250, 266.141 412.217 C 271.289 407.793, 275.997 403.351, 276.603 402.345 C 277.600 400.694, 278.216 401.076, 282.985 406.294 C 285.889 409.470, 288.439 411.894, 288.653 411.680 C 288.867 411.466, 287.912 408.863, 286.531 405.895 C 285.150 402.928, 284.015 399.324, 284.010 397.886 C 284.001 395.550, 283.575 395.244, 280 395.005 C 274.373 394.627, 260.080 394.565, 256.500 394.902 C 254.850 395.057, 250.800 394.951, 247.500 394.666 C 244.200 394.381, 239.925 394.460, 238 394.841 M 228 397.398 C 228 398.718, 226.657 402.350, 225.016 405.470 L 222.032 411.143 225.862 408.109 C 227.969 406.441, 230.267 404.384, 230.969 403.538 C 231.671 402.692, 232.670 402, 233.189 402 C 234.321 402, 244.778 410.800, 250.738 416.768 C 253.459 419.492, 255 420.468, 255 419.468 C 255 416.966, 252.440 412.756, 248.835 409.329 C 244.771 405.464, 230.241 395, 228.939 395 C 228.423 395, 228 396.079, 228 397.398 M 183.920 402.125 C 177.195 412.604, 175.136 425.202, 178.673 434.230 C 182.073 442.911, 191.271 455.395, 196.282 458.132 C 197.848 458.987, 197.990 458.765, 197.453 456.302 C 197.094 454.657, 198.135 455.978, 199.974 459.500 C 204.139 467.478, 205.365 468.590, 204.387 463.500 C 203.964 461.300, 203.645 454.775, 203.677 449 C 203.725 440.589, 204.189 437.319, 206.010 432.565 L 208.282 426.630 210.070 428.839 C 211.054 430.053, 214.571 436.140, 217.885 442.365 C 224.237 454.292, 227 457.889, 227 454.228 C 227 451.682, 223.266 439.473, 221.273 435.500 C 220.445 433.850, 217.986 430.112, 215.808 427.193 C 213.095 423.556, 212.149 421.511, 212.802 420.693 C 213.326 420.037, 214.066 418.488, 214.445 417.250 C 215.019 415.378, 214.756 415, 212.882 415 C 209.162 415, 206.309 418.737, 202.479 428.621 C 200.480 433.780, 198.407 438, 197.871 438 C 196.264 438, 194 431.367, 194 426.657 C 194 423.750, 195.191 419.636, 197.500 414.569 C 199.425 410.345, 200.987 405.902, 200.971 404.695 C 200.944 402.660, 200.729 402.734, 198.024 405.706 C 195.341 408.654, 194.055 411.829, 192.509 419.321 C 191.607 423.688, 189.705 421.988, 187.598 414.933 C 185.956 409.434, 185.847 407.760, 186.828 403.083 C 187.456 400.088, 187.810 397.477, 187.614 397.281 C 187.418 397.084, 185.755 399.264, 183.920 402.125 M 275.663 426.304 C 272.824 429.221, 267.149 436.598, 263.052 442.697 L 255.605 453.787 252.097 447.857 C 245.075 435.987, 231.260 420.406, 229.404 422.263 C 229.139 422.527, 230.403 424.587, 232.212 426.840 C 240.067 436.625, 253.234 453.617, 253.961 454.904 C 255.404 457.464, 257.715 455.263, 267.905 441.627 C 273.458 434.197, 278.430 427.853, 278.954 427.529 C 279.478 427.205, 280.858 425.603, 282.022 423.970 C 285.716 418.781, 281.469 420.340, 275.663 426.304 M 223 430.277 C 223 431.530, 223.716 433.577, 224.590 434.825 C 225.851 436.626, 226.472 436.853, 227.590 435.925 C 230.463 433.541, 228.927 428, 225.393 428 C 223.569 428, 223 428.542, 223 430.277 M 284.035 429.934 C 282.687 432.453, 282.713 435.705, 284.087 436.554 C 285.703 437.552, 286.999 435.782, 287.667 431.664 C 288.144 428.728, 287.945 428, 286.666 428 C 285.788 428, 284.605 428.870, 284.035 429.934 M 211.097 444.150 C 210.494 445.882, 210 449.819, 210.001 452.899 C 210.002 461.735, 214.330 469.737, 224.244 479.233 C 228.703 483.505, 232.699 487, 233.125 487 C 233.550 487, 233.289 485.538, 232.544 483.750 C 231.800 481.962, 230.840 478.250, 230.412 475.500 L 229.633 470.500 228.451 474.500 L 227.268 478.500 224.626 469.920 C 222.779 463.924, 220.878 460.049, 218.314 457.054 C 215.309 453.543, 214.564 451.791, 214.197 447.365 C 213.664 440.940, 212.601 439.837, 211.097 444.150 M 299.695 444.639 C 299.313 445.021, 299 446.058, 299 446.943 C 299 447.829, 296.577 452.034, 293.616 456.289 C 290.654 460.543, 287.732 466.008, 287.122 468.432 C 286.511 470.855, 285.481 474.113, 284.832 475.669 L 283.653 478.500 283.073 475 C 282.526 471.701, 282.373 471.945, 280.404 479.250 C 279.255 483.512, 278.641 487, 279.040 487 C 279.438 487, 283.304 483.481, 287.632 479.179 C 297.597 469.274, 301.125 462.986, 301.769 453.984 C 302.224 447.631, 301.221 443.113, 299.695 444.639 M 232.750 447.973 C 230.631 450.966, 230.516 453.955, 232.418 456.557 C 234.492 459.393, 235.145 457.970, 234.803 451.363 L 234.500 445.500 232.750 447.973 M 276 453.500 C 276 460.038, 277.047 461.650, 278.965 458.066 C 281.115 454.048, 279.736 447, 276.800 447 C 276.360 447, 276 449.925, 276 453.500 M 267.500 482.176 C 263.650 486.580, 259.438 491.699, 258.140 493.553 L 255.781 496.922 251.449 491.211 C 244.489 482.036, 237.068 474.288, 237.032 476.160 C 236.982 478.774, 253.295 498.002, 255.560 497.999 C 257.904 497.996, 271.148 483.590, 274.067 477.868 C 275.153 475.741, 275.694 474.038, 275.270 474.084 C 274.847 474.130, 271.350 477.772, 267.500 482.176" stroke="#4568DC" fill="#4568DC" fill-rule="evenodd"/>
</svg>